<?xml version="1.0" encoding="utf-8" standalone="no"?>
<!DOCTYPE svg PUBLIC "-//W3C//DTD SVG 1.1//EN" "http://www.w3.org/Graphics/SVG/1.1/DTD/svg11.dtd">
<svg width="2000px" height="2000px" version="1.1" xmlns="http://www.w3.org/2000/svg" xmlns:xlink="http://www.w3.org/1999/xlink">
<g id="bg">
<rect x="0" y="0" width="2000px" height="2000px" style="fill:rgb(255,255,255);"/>
</g>
<g id="ideograms">
<g id="highlighttrack_0">
<path d="M1000.000,280.000 A720.000,720.000 40.000 0,1 1232.738,318.653 L1237.586,304.459 A735.000,735.000 0.000 0,0 1000.000,265.000 Z" style="stroke-width:1.0;stroke:rgb(0,0,0);stroke-linecap:round;fill:rgb(46,168,230);" />
<path d="M1232.738,318.653 A720.000,720.000 40.000 0,1 1364.693,379.195 L1372.291,366.262 A735.000,735.000 0.000 0,0 1237.586,304.459 Z" style="stroke-width:1.0;stroke:rgb(0,0,0);stroke-linecap:round;fill:rgb(230,199,46);" />
<path d="M1364.693,379.195 A720.000,720.000 40.000 0,1 1457.329,443.897 L1466.857,432.312 A735.000,735.000 0.000 0,0 1372.291,366.262 Z" style="stroke-width:1.0;stroke:rgb(0,0,0);stroke-linecap:round;fill:rgb(230,46,46);" />
<path d="M1457.329,443.897 A720.000,720.000 40.000 0,1 1520.460,502.485 L1531.303,492.120 A735.000,735.000 0.000 0,0 1466.857,432.312 Z" style="stroke-width:1.0;stroke:rgb(0,0,0);stroke-linecap:round;fill:rgb(107,230,46);" />
<path d="M1520.460,502.485 A720.000,720.000 40.000 0,1 1576.144,568.192 L1588.147,559.196 A735.000,735.000 0.000 0,0 1531.303,492.120 Z" style="stroke-width:1.0;stroke:rgb(0,0,0);stroke-linecap:round;fill:rgb(46,230,138);" />
<path d="M1576.144,568.192 A720.000,720.000 40.000 0,1 1620.873,635.423 L1633.808,627.828 A735.000,735.000 0.000 0,0 1588.147,559.196 Z" style="stroke-width:1.0;stroke:rgb(0,0,0);stroke-linecap:round;fill:rgb(230,46,230);" />
<path d="M1620.873,635.423 A720.000,720.000 40.000 0,1 1643.994,678.019 L1657.411,671.311 A735.000,735.000 0.000 0,0 1633.808,627.828 Z" style="stroke-width:1.0;stroke:rgb(0,0,0);stroke-linecap:round;fill:rgb(77,46,230);" />
</g>
<g id="highlighttrack_2">
<path d="M1000.000,240.000 A760.000,760.000 40.000 0,1 1245.668,280.801 L1250.516,266.606 A775.000,775.000 0.000 0,0 1000.000,225.000 Z" style="stroke-width:1.0;stroke:rgb(0,0,0);stroke-linecap:round;fill:rgb(46,168,230);" />
<path d="M1245.668,280.801 A760.000,760.000 40.000 0,1 1384.954,344.706 L1392.552,331.772 A775.000,775.000 0.000 0,0 1250.516,266.606 Z" style="stroke-width:1.0;stroke:rgb(0,0,0);stroke-linecap:round;fill:rgb(230,199,46);" />
<path d="M1384.954,344.706 A760.000,760.000 40.000 0,1 1482.736,413.003 L1492.264,401.417 A775.000,775.000 0.000 0,0 1392.552,331.772 Z" style="stroke-width:1.0;stroke:rgb(0,0,0);stroke-linecap:round;fill:rgb(230,46,46);" />
<path d="M1482.736,413.003 A760.000,760.000 40.000 0,1 1549.375,474.845 L1560.218,464.480 A775.000,775.000 0.000 0,0 1492.264,401.417 Z" style="stroke-width:1.0;stroke:rgb(0,0,0);stroke-linecap:round;fill:rgb(107,230,46);" />
<path d="M1549.375,474.845 A760.000,760.000 40.000 0,1 1608.152,544.203 L1620.155,535.207 A775.000,775.000 0.000 0,0 1560.218,464.480 Z" style="stroke-width:1.0;stroke:rgb(0,0,0);stroke-linecap:round;fill:rgb(46,230,138);" />
<path d="M1608.152,544.203 A760.000,760.000 40.000 0,1 1655.366,615.169 L1668.301,607.573 A775.000,775.000 0.000 0,0 1620.155,535.207 Z" style="stroke-width:1.0;stroke:rgb(0,0,0);stroke-linecap:round;fill:rgb(230,46,230);" />
<path d="M1655.366,615.169 A760.000,760.000 40.000 0,1 1679.772,660.132 L1693.188,653.424 A775.000,775.000 0.000 0,0 1668.301,607.573 Z" style="stroke-width:1.0;stroke:rgb(0,0,0);stroke-linecap:round;fill:rgb(77,46,230);" />
</g>
<g id="highlighttrack_4">
<path d="M1000.000,380.630 A619.370,619.370 40.000 0,1 1096.902,388.257 L1098.467,378.380 A629.370,629.370 0.000 0,0 1000.000,370.630 Z" style="stroke-width:1.0;stroke:rgb(0,0,0);stroke-linecap:round;fill:rgb(230,46,46);" />
<path d="M1096.902,388.257 A619.370,619.370 40.000 0,1 1217.656,420.134 L1221.170,410.771 A629.370,629.370 0.000 0,0 1098.467,378.380 Z" style="stroke-width:1.0;stroke:rgb(0,0,0);stroke-linecap:round;fill:rgb(230,199,46);" />
<path d="M1217.656,420.134 A619.370,619.370 40.000 0,1 1285.339,450.272 L1289.946,441.397 A629.370,629.370 0.000 0,0 1221.170,410.771 Z" style="stroke-width:1.0;stroke:rgb(0,0,0);stroke-linecap:round;fill:rgb(107,230,46);" />
<path d="M1285.339,450.272 A619.370,619.370 40.000 0,1 1348.940,488.277 L1354.574,480.015 A629.370,629.370 0.000 0,0 1289.946,441.397 Z" style="stroke-width:1.0;stroke:rgb(0,0,0);stroke-linecap:round;fill:rgb(46,230,138);" />
<path d="M1348.940,488.277 A619.370,619.370 40.000 0,1 1495.620,628.543 L1503.622,622.546 A629.370,629.370 0.000 0,0 1354.574,480.015 Z" style="stroke-width:1.0;stroke:rgb(0,0,0);stroke-linecap:round;fill:rgb(46,168,230);" />
<path d="M1495.620,628.543 A619.370,619.370 40.000 0,1 1519.487,662.728 L1527.875,657.283 A629.370,629.370 0.000 0,0 1503.622,622.546 Z" style="stroke-width:1.0;stroke:rgb(0,0,0);stroke-linecap:round;fill:rgb(77,46,230);" />
<path d="M1519.487,662.728 A619.370,619.370 40.000 0,1 1553.987,723.021 L1562.931,718.549 A629.370,629.370 0.000 0,0 1527.875,657.283 Z" style="stroke-width:1.0;stroke:rgb(0,0,0);stroke-linecap:round;fill:rgb(230,46,230);" />
</g>
<path d="M1000.000,370.000 A630.000,630.000 40.000 0,1 1563.495,718.267 L1581.384,709.323 A650.000,650.000 0.000 0,0 1000.000,350.000 Z" style="stroke-width:1.0;stroke:rgb(0,0,0);stroke-linecap:round;fill:rgb(142,84,228);" />
<text x="1435.7" y="295.0" font-size="46.8px" font-family="CMUBright-Roman" style="text-anchor:middle;fill:rgb(0,0,0);" transform="rotate(391.7,1435.7,295.0)" >Male</text>
<line x1='1000.0' y1='349.9' x2='1000.0' y2='343.9' style="stroke-width:3.0;stroke:rgb(0,0,0);stroke-linecap:round;fill:none;" />
<text x="1009.5" y="341.0" font-size="26.0px" font-family="CMUBright-Roman" style="text-anchor:start;fill:rgb(0,0,0);" transform="rotate(270.0,1009.5,341.0)" >0</text>
<line x1='1024.3' y1='350.4' x2='1024.5' y2='346.4' style="stroke-width:3.0;stroke:rgb(0,0,0);stroke-linecap:round;fill:none;" />
<line x1='1048.6' y1='351.8' x2='1048.9' y2='347.8' style="stroke-width:3.0;stroke:rgb(0,0,0);stroke-linecap:round;fill:none;" />
<text x="1058.6" y="345.6" font-size="26.0px" font-family="CMUBright-Roman" style="text-anchor:start;fill:rgb(0,0,0);" transform="rotate(274.3,1058.6,345.6)" >10</text>
<line x1='1072.8' y1='354.0' x2='1073.2' y2='350.0' style="stroke-width:3.0;stroke:rgb(0,0,0);stroke-linecap:round;fill:none;" />
<line x1='1096.9' y1='357.2' x2='1097.5' y2='353.2' style="stroke-width:3.0;stroke:rgb(0,0,0);stroke-linecap:round;fill:none;" />
<text x="1107.3" y="351.8" font-size="26.0px" font-family="CMUBright-Roman" style="text-anchor:start;fill:rgb(0,0,0);" transform="rotate(278.6,1107.3,351.8)" >20</text>
<line x1='1120.9' y1='361.3' x2='1121.6' y2='357.3' style="stroke-width:3.0;stroke:rgb(0,0,0);stroke-linecap:round;fill:none;" />
<line x1='1144.7' y1='366.2' x2='1145.6' y2='362.3' style="stroke-width:3.0;stroke:rgb(0,0,0);stroke-linecap:round;fill:none;" />
<text x="1155.5" y="361.6" font-size="26.0px" font-family="CMUBright-Roman" style="text-anchor:start;fill:rgb(0,0,0);" transform="rotate(282.9,1155.5,361.6)" >30</text>
<line x1='1168.3' y1='372.1' x2='1169.3' y2='368.2' style="stroke-width:3.0;stroke:rgb(0,0,0);stroke-linecap:round;fill:none;" />
<line x1='1191.6' y1='378.8' x2='1192.8' y2='375.0' style="stroke-width:3.0;stroke:rgb(0,0,0);stroke-linecap:round;fill:none;" />
<text x="1202.8" y="375.0" font-size="26.0px" font-family="CMUBright-Roman" style="text-anchor:start;fill:rgb(0,0,0);" transform="rotate(287.1,1202.8,375.0)" >40</text>
<line x1='1214.7' y1='386.4' x2='1216.0' y2='382.6' style="stroke-width:3.0;stroke:rgb(0,0,0);stroke-linecap:round;fill:none;" />
<line x1='1237.5' y1='394.9' x2='1239.7' y2='389.3' style="stroke-width:3.0;stroke:rgb(0,0,0);stroke-linecap:round;fill:none;" />
<text x="1249.6" y="390.0" font-size="26.0px" font-family="CMUBright-Roman" style="text-anchor:start;fill:rgb(0,0,0);" transform="rotate(291.4,1249.6,390.0)" >50</text>
<line x1='1260.0' y1='404.2' x2='1261.6' y2='400.5' style="stroke-width:3.0;stroke:rgb(0,0,0);stroke-linecap:round;fill:none;" />
<line x1='1282.1' y1='414.3' x2='1283.8' y2='410.7' style="stroke-width:3.0;stroke:rgb(0,0,0);stroke-linecap:round;fill:none;" />
<text x="1293.7" y="412.2" font-size="26.0px" font-family="CMUBright-Roman" style="text-anchor:start;fill:rgb(0,0,0);" transform="rotate(295.7,1293.7,412.2)" >60</text>
<line x1='1303.8' y1='425.3' x2='1305.7' y2='421.7' style="stroke-width:3.0;stroke:rgb(0,0,0);stroke-linecap:round;fill:none;" />
<line x1='1325.1' y1='437.0' x2='1327.1' y2='433.6' style="stroke-width:3.0;stroke:rgb(0,0,0);stroke-linecap:round;fill:none;" />
<text x="1336.8" y="435.8" font-size="26.0px" font-family="CMUBright-Roman" style="text-anchor:start;fill:rgb(0,0,0);" transform="rotate(300.0,1336.8,435.8)" >70</text>
<line x1='1345.9' y1='449.6' x2='1348.0' y2='446.2' style="stroke-width:3.0;stroke:rgb(0,0,0);stroke-linecap:round;fill:none;" />
<line x1='1366.2' y1='462.9' x2='1368.5' y2='459.6' style="stroke-width:3.0;stroke:rgb(0,0,0);stroke-linecap:round;fill:none;" />
<text x="1378.0" y="462.5" font-size="26.0px" font-family="CMUBright-Roman" style="text-anchor:start;fill:rgb(0,0,0);" transform="rotate(304.3,1378.0,462.5)" >80</text>
<line x1='1386.1' y1='477.0' x2='1388.4' y2='473.8' style="stroke-width:3.0;stroke:rgb(0,0,0);stroke-linecap:round;fill:none;" />
<line x1='1405.3' y1='491.8' x2='1407.8' y2='488.7' style="stroke-width:3.0;stroke:rgb(0,0,0);stroke-linecap:round;fill:none;" />
<text x="1417.1" y="492.3" font-size="26.0px" font-family="CMUBright-Roman" style="text-anchor:start;fill:rgb(0,0,0);" transform="rotate(308.6,1417.1,492.3)" >90</text>
<line x1='1424.1' y1='507.3' x2='1426.7' y2='504.3' style="stroke-width:3.0;stroke:rgb(0,0,0);stroke-linecap:round;fill:none;" />
<line x1='1442.2' y1='523.5' x2='1446.3' y2='519.1' style="stroke-width:3.0;stroke:rgb(0,0,0);stroke-linecap:round;fill:none;" />
<text x="1455.2" y="523.4" font-size="26.0px" font-family="CMUBright-Roman" style="text-anchor:start;fill:rgb(0,0,0);" transform="rotate(312.9,1455.2,523.4)" >100</text>
<line x1='1459.7' y1='540.4' x2='1462.5' y2='537.5' style="stroke-width:3.0;stroke:rgb(0,0,0);stroke-linecap:round;fill:none;" />
<line x1='1476.6' y1='557.9' x2='1479.5' y2='555.2' style="stroke-width:3.0;stroke:rgb(0,0,0);stroke-linecap:round;fill:none;" />
<text x="1488.1" y="560.1" font-size="26.0px" font-family="CMUBright-Roman" style="text-anchor:start;fill:rgb(0,0,0);" transform="rotate(317.1,1488.1,560.1)" >110</text>
<line x1='1492.8' y1='576.0' x2='1495.8' y2='573.4' style="stroke-width:3.0;stroke:rgb(0,0,0);stroke-linecap:round;fill:none;" />
<line x1='1508.3' y1='594.7' x2='1511.4' y2='592.3' style="stroke-width:3.0;stroke:rgb(0,0,0);stroke-linecap:round;fill:none;" />
<text x="1519.6" y="597.9" font-size="26.0px" font-family="CMUBright-Roman" style="text-anchor:start;fill:rgb(0,0,0);" transform="rotate(321.4,1519.6,597.9)" >120</text>
<line x1='1523.1' y1='614.0' x2='1526.3' y2='611.7' style="stroke-width:3.0;stroke:rgb(0,0,0);stroke-linecap:round;fill:none;" />
<line x1='1537.2' y1='633.9' x2='1540.5' y2='631.6' style="stroke-width:3.0;stroke:rgb(0,0,0);stroke-linecap:round;fill:none;" />
<text x="1548.2" y="637.8" font-size="26.0px" font-family="CMUBright-Roman" style="text-anchor:start;fill:rgb(0,0,0);" transform="rotate(325.7,1548.2,637.8)" >130</text>
<line x1='1550.5' y1='654.2' x2='1553.9' y2='652.1' style="stroke-width:3.0;stroke:rgb(0,0,0);stroke-linecap:round;fill:none;" />
<line x1='1563.0' y1='675.0' x2='1566.5' y2='673.0' style="stroke-width:3.0;stroke:rgb(0,0,0);stroke-linecap:round;fill:none;" />
<text x="1573.8" y="679.8" font-size="26.0px" font-family="CMUBright-Roman" style="text-anchor:start;fill:rgb(0,0,0);" transform="rotate(330.0,1573.8,679.8)" >140</text>
<line x1='1574.8' y1='696.3' x2='1578.3' y2='694.5' style="stroke-width:3.0;stroke:rgb(0,0,0);stroke-linecap:round;fill:none;" />
<path d="M1000.000,370.000 A630.000,630.000 40.000 0,1 1563.495,718.267 L1581.384,709.323 A650.000,650.000 0.000 0,0 1000.000,350.000 Z" style="stroke-width:1.0;stroke:rgb(0,0,0);stroke-linecap:round;fill:none;" />
<g id="highlighttrack_0">
<path d="M1668.481,732.543 A720.000,720.000 40.000 0,1 1717.040,1065.219 L1731.978,1066.577 A735.000,735.000 0.000 0,0 1682.408,726.971 Z" style="stroke-width:1.0;stroke:rgb(0,0,0);stroke-linecap:round;fill:rgb(46,168,230);" />
<path d="M1717.040,1065.219 A720.000,720.000 40.000 0,1 1659.641,1288.572 L1673.384,1294.583 A735.000,735.000 0.000 0,0 1731.978,1066.577 Z" style="stroke-width:1.0;stroke:rgb(0,0,0);stroke-linecap:round;fill:rgb(230,199,46);" />
<path d="M1659.641,1288.572 A720.000,720.000 40.000 0,1 1582.065,1423.793 L1594.191,1432.622 A735.000,735.000 0.000 0,0 1673.384,1294.583 Z" style="stroke-width:1.0;stroke:rgb(0,0,0);stroke-linecap:round;fill:rgb(107,230,46);" />
<path d="M1582.065,1423.793 A720.000,720.000 40.000 0,1 1481.220,1535.563 L1491.245,1546.720 A735.000,735.000 0.000 0,0 1594.191,1432.622 Z" style="stroke-width:1.0;stroke:rgb(0,0,0);stroke-linecap:round;fill:rgb(230,46,46);" />
<path d="M1481.220,1535.563 A720.000,720.000 40.000 0,1 1359.339,1623.919 L1366.825,1636.918 A735.000,735.000 0.000 0,0 1491.245,1546.720 Z" style="stroke-width:1.0;stroke:rgb(0,0,0);stroke-linecap:round;fill:rgb(46,230,138);" />
<path d="M1359.339,1623.919 A720.000,720.000 40.000 0,1 1277.304,1664.457 L1283.081,1678.299 A735.000,735.000 0.000 0,0 1366.825,1636.918 Z" style="stroke-width:1.0;stroke:rgb(0,0,0);stroke-linecap:round;fill:rgb(77,46,230);" />
<path d="M1277.304,1664.457 A720.000,720.000 40.000 0,1 1206.322,1689.805 L1210.620,1704.176 A735.000,735.000 0.000 0,0 1283.081,1678.299 Z" style="stroke-width:1.0;stroke:rgb(0,0,0);stroke-linecap:round;fill:rgb(230,46,230);" />
</g>
<g id="highlighttrack_2">
<path d="M1705.619,717.684 A760.000,760.000 40.000 0,1 1756.876,1068.842 L1771.814,1070.200 A775.000,775.000 0.000 0,0 1719.546,712.112 Z" style="stroke-width:1.0;stroke:rgb(0,0,0);stroke-linecap:round;fill:rgb(46,168,230);" />
<path d="M1756.876,1068.842 A760.000,760.000 40.000 0,1 1696.288,1304.603 L1710.030,1310.615 A775.000,775.000 0.000 0,0 1771.814,1070.200 Z" style="stroke-width:1.0;stroke:rgb(0,0,0);stroke-linecap:round;fill:rgb(230,199,46);" />
<path d="M1696.288,1304.603 A760.000,760.000 40.000 0,1 1614.401,1447.338 L1626.528,1456.167 A775.000,775.000 0.000 0,0 1710.030,1310.615 Z" style="stroke-width:1.0;stroke:rgb(0,0,0);stroke-linecap:round;fill:rgb(107,230,46);" />
<path d="M1614.401,1447.338 A760.000,760.000 40.000 0,1 1507.955,1565.316 L1517.980,1576.474 A775.000,775.000 0.000 0,0 1626.528,1456.167 Z" style="stroke-width:1.0;stroke:rgb(0,0,0);stroke-linecap:round;fill:rgb(230,46,46);" />
<path d="M1507.955,1565.316 A760.000,760.000 40.000 0,1 1379.302,1658.582 L1386.788,1671.580 A775.000,775.000 0.000 0,0 1517.980,1576.474 Z" style="stroke-width:1.0;stroke:rgb(0,0,0);stroke-linecap:round;fill:rgb(46,230,138);" />
<path d="M1379.302,1658.582 A760.000,760.000 40.000 0,1 1292.710,1701.371 L1298.487,1715.214 A775.000,775.000 0.000 0,0 1386.788,1671.580 Z" style="stroke-width:1.0;stroke:rgb(0,0,0);stroke-linecap:round;fill:rgb(77,46,230);" />
<path d="M1292.710,1701.371 A760.000,760.000 40.000 0,1 1217.784,1728.128 L1222.082,1742.499 A775.000,775.000 0.000 0,0 1298.487,1715.214 Z" style="stroke-width:1.0;stroke:rgb(0,0,0);stroke-linecap:round;fill:rgb(230,46,230);" />
</g>
<g id="highlighttrack_4">
<path d="M1575.052,769.924 A619.370,619.370 40.000 0,1 1610.323,894.527 L1620.177,892.824 A629.370,629.370 0.000 0,0 1584.336,766.209 Z" style="stroke-width:1.0;stroke:rgb(0,0,0);stroke-linecap:round;fill:rgb(230,46,46);" />
<path d="M1610.323,894.527 A619.370,619.370 40.000 0,1 1612.364,1092.896 L1622.251,1094.396 A629.370,629.370 0.000 0,0 1620.177,892.824 Z" style="stroke-width:1.0;stroke:rgb(0,0,0);stroke-linecap:round;fill:rgb(230,199,46);" />
<path d="M1612.364,1092.896 A619.370,619.370 40.000 0,1 1578.014,1222.528 L1587.346,1226.121 A629.370,629.370 0.000 0,0 1622.251,1094.396 Z" style="stroke-width:1.0;stroke:rgb(0,0,0);stroke-linecap:round;fill:rgb(107,230,46);" />
<path d="M1578.014,1222.528 A619.370,619.370 40.000 0,1 1519.109,1337.854 L1527.490,1343.309 A629.370,629.370 0.000 0,0 1587.346,1226.121 Z" style="stroke-width:1.0;stroke:rgb(0,0,0);stroke-linecap:round;fill:rgb(46,230,138);" />
<path d="M1519.109,1337.854 A619.370,619.370 40.000 0,1 1309.116,1536.718 L1314.107,1545.384 A629.370,629.370 0.000 0,0 1527.490,1343.309 Z" style="stroke-width:1.0;stroke:rgb(0,0,0);stroke-linecap:round;fill:rgb(46,168,230);" />
<path d="M1309.116,1536.718 A619.370,619.370 40.000 0,1 1238.547,1571.590 L1242.398,1580.818 A629.370,629.370 0.000 0,0 1314.107,1545.384 Z" style="stroke-width:1.0;stroke:rgb(0,0,0);stroke-linecap:round;fill:rgb(77,46,230);" />
<path d="M1238.547,1571.590 A619.370,619.370 40.000 0,1 1177.485,1593.395 L1180.351,1602.976 A629.370,629.370 0.000 0,0 1242.398,1580.818 Z" style="stroke-width:1.0;stroke:rgb(0,0,0);stroke-linecap:round;fill:rgb(230,46,230);" />
</g>
<path d="M1584.921,765.975 A630.000,630.000 40.000 0,1 1180.531,1603.580 L1186.263,1622.741 A650.000,650.000 0.000 0,0 1603.490,758.546 Z" style="stroke-width:1.0;stroke:rgb(0,0,0);stroke-linecap:round;fill:rgb(221,234,106);" />
<text x="1777.8" y="1375.5" font-size="46.8px" font-family="CMUBright-Roman" style="text-anchor:middle;fill:rgb(0,0,0);" transform="rotate(-64.2,1777.8,1375.5)" >Female</text>
<line x1='1603.6' y1='758.5' x2='1609.1' y2='756.3' style="stroke-width:3.0;stroke:rgb(0,0,0);stroke-linecap:round;fill:none;" />
<text x="1615.4" y="764.0" font-size="26.0px" font-family="CMUBright-Roman" style="text-anchor:start;fill:rgb(0,0,0);" transform="rotate(338.2,1615.4,764.0)" >0</text>
<line x1='1612.2' y1='781.3' x2='1615.9' y2='779.9' style="stroke-width:3.0;stroke:rgb(0,0,0);stroke-linecap:round;fill:none;" />
<line x1='1619.9' y1='804.3' x2='1623.7' y2='803.1' style="stroke-width:3.0;stroke:rgb(0,0,0);stroke-linecap:round;fill:none;" />
<text x="1629.4" y="811.3" font-size="26.0px" font-family="CMUBright-Roman" style="text-anchor:start;fill:rgb(0,0,0);" transform="rotate(342.5,1629.4,811.3)" >10</text>
<line x1='1626.8' y1='827.6' x2='1630.7' y2='826.6' style="stroke-width:3.0;stroke:rgb(0,0,0);stroke-linecap:round;fill:none;" />
<line x1='1632.8' y1='851.2' x2='1636.7' y2='850.3' style="stroke-width:3.0;stroke:rgb(0,0,0);stroke-linecap:round;fill:none;" />
<text x="1641.7" y="858.8" font-size="26.0px" font-family="CMUBright-Roman" style="text-anchor:start;fill:rgb(0,0,0);" transform="rotate(346.8,1641.7,858.8)" >20</text>
<line x1='1637.9' y1='875.0' x2='1641.8' y2='874.2' style="stroke-width:3.0;stroke:rgb(0,0,0);stroke-linecap:round;fill:none;" />
<line x1='1642.2' y1='898.9' x2='1646.1' y2='898.3' style="stroke-width:3.0;stroke:rgb(0,0,0);stroke-linecap:round;fill:none;" />
<text x="1650.5" y="907.2" font-size="26.0px" font-family="CMUBright-Roman" style="text-anchor:start;fill:rgb(0,0,0);" transform="rotate(351.1,1650.5,907.2)" >30</text>
<line x1='1645.5' y1='923.0' x2='1649.5' y2='922.5' style="stroke-width:3.0;stroke:rgb(0,0,0);stroke-linecap:round;fill:none;" />
<line x1='1647.9' y1='947.2' x2='1651.9' y2='946.8' style="stroke-width:3.0;stroke:rgb(0,0,0);stroke-linecap:round;fill:none;" />
<text x="1655.6" y="956.1" font-size="26.0px" font-family="CMUBright-Roman" style="text-anchor:start;fill:rgb(0,0,0);" transform="rotate(355.3,1655.6,956.1)" >40</text>
<line x1='1649.4' y1='971.4' x2='1653.4' y2='971.3' style="stroke-width:3.0;stroke:rgb(0,0,0);stroke-linecap:round;fill:none;" />
<line x1='1650.1' y1='995.7' x2='1656.1' y2='995.7' style="stroke-width:3.0;stroke:rgb(0,0,0);stroke-linecap:round;fill:none;" />
<text x="1659.0" y="1005.2" font-size="26.0px" font-family="CMUBright-Roman" style="text-anchor:start;fill:rgb(0,0,0);" transform="rotate(359.6,1659.0,1005.2)" >50</text>
<line x1='1649.8' y1='1020.1' x2='1653.8' y2='1020.2' style="stroke-width:3.0;stroke:rgb(0,0,0);stroke-linecap:round;fill:none;" />
<line x1='1648.6' y1='1044.3' x2='1652.5' y2='1044.6' style="stroke-width:3.0;stroke:rgb(0,0,0);stroke-linecap:round;fill:none;" />
<text x="1654.8" y="1054.3" font-size="26.0px" font-family="CMUBright-Roman" style="text-anchor:start;fill:rgb(0,0,0);" transform="rotate(3.9,1654.8,1054.3)" >60</text>
<line x1='1646.4' y1='1068.6' x2='1650.4' y2='1069.0' style="stroke-width:3.0;stroke:rgb(0,0,0);stroke-linecap:round;fill:none;" />
<line x1='1643.4' y1='1092.7' x2='1647.4' y2='1093.3' style="stroke-width:3.0;stroke:rgb(0,0,0);stroke-linecap:round;fill:none;" />
<text x="1648.9" y="1103.1" font-size="26.0px" font-family="CMUBright-Roman" style="text-anchor:start;fill:rgb(0,0,0);" transform="rotate(8.2,1648.9,1103.1)" >70</text>
<line x1='1639.5' y1='1116.7' x2='1643.4' y2='1117.4' style="stroke-width:3.0;stroke:rgb(0,0,0);stroke-linecap:round;fill:none;" />
<line x1='1634.7' y1='1140.5' x2='1638.6' y2='1141.4' style="stroke-width:3.0;stroke:rgb(0,0,0);stroke-linecap:round;fill:none;" />
<text x="1639.4" y="1151.3" font-size="26.0px" font-family="CMUBright-Roman" style="text-anchor:start;fill:rgb(0,0,0);" transform="rotate(12.5,1639.4,1151.3)" >80</text>
<line x1='1629.0' y1='1164.2' x2='1632.9' y2='1165.2' style="stroke-width:3.0;stroke:rgb(0,0,0);stroke-linecap:round;fill:none;" />
<line x1='1622.4' y1='1187.6' x2='1626.2' y2='1188.7' style="stroke-width:3.0;stroke:rgb(0,0,0);stroke-linecap:round;fill:none;" />
<text x="1626.3" y="1198.7" font-size="26.0px" font-family="CMUBright-Roman" style="text-anchor:start;fill:rgb(0,0,0);" transform="rotate(16.8,1626.3,1198.7)" >90</text>
<line x1='1615.0' y1='1210.7' x2='1618.8' y2='1212.0' style="stroke-width:3.0;stroke:rgb(0,0,0);stroke-linecap:round;fill:none;" />
<line x1='1606.7' y1='1233.6' x2='1612.3' y2='1235.7' style="stroke-width:3.0;stroke:rgb(0,0,0);stroke-linecap:round;fill:none;" />
<text x="1611.6" y="1245.6" font-size="26.0px" font-family="CMUBright-Roman" style="text-anchor:start;fill:rgb(0,0,0);" transform="rotate(21.1,1611.6,1245.6)" >100</text>
<line x1='1597.5' y1='1256.1' x2='1601.2' y2='1257.7' style="stroke-width:3.0;stroke:rgb(0,0,0);stroke-linecap:round;fill:none;" />
<line x1='1587.5' y1='1278.2' x2='1591.1' y2='1280.0' style="stroke-width:3.0;stroke:rgb(0,0,0);stroke-linecap:round;fill:none;" />
<text x="1589.7" y="1289.8" font-size="26.0px" font-family="CMUBright-Roman" style="text-anchor:start;fill:rgb(0,0,0);" transform="rotate(25.3,1589.7,1289.8)" >110</text>
<line x1='1576.7' y1='1300.0' x2='1580.2' y2='1301.9' style="stroke-width:3.0;stroke:rgb(0,0,0);stroke-linecap:round;fill:none;" />
<line x1='1565.1' y1='1321.4' x2='1568.5' y2='1323.4' style="stroke-width:3.0;stroke:rgb(0,0,0);stroke-linecap:round;fill:none;" />
<text x="1566.4" y="1333.1" font-size="26.0px" font-family="CMUBright-Roman" style="text-anchor:start;fill:rgb(0,0,0);" transform="rotate(29.6,1566.4,1333.1)" >120</text>
<line x1='1552.7' y1='1342.3' x2='1556.1' y2='1344.4' style="stroke-width:3.0;stroke:rgb(0,0,0);stroke-linecap:round;fill:none;" />
<line x1='1539.5' y1='1362.7' x2='1542.8' y2='1364.9' style="stroke-width:3.0;stroke:rgb(0,0,0);stroke-linecap:round;fill:none;" />
<text x="1539.9" y="1374.5" font-size="26.0px" font-family="CMUBright-Roman" style="text-anchor:start;fill:rgb(0,0,0);" transform="rotate(33.9,1539.9,1374.5)" >130</text>
<line x1='1525.5' y1='1382.6' x2='1528.8' y2='1385.0' style="stroke-width:3.0;stroke:rgb(0,0,0);stroke-linecap:round;fill:none;" />
<line x1='1510.9' y1='1402.0' x2='1514.0' y2='1404.5' style="stroke-width:3.0;stroke:rgb(0,0,0);stroke-linecap:round;fill:none;" />
<text x="1510.4" y="1413.8" font-size="26.0px" font-family="CMUBright-Roman" style="text-anchor:start;fill:rgb(0,0,0);" transform="rotate(38.2,1510.4,1413.8)" >140</text>
<line x1='1495.5' y1='1420.8' x2='1498.5' y2='1423.4' style="stroke-width:3.0;stroke:rgb(0,0,0);stroke-linecap:round;fill:none;" />
<line x1='1479.4' y1='1439.1' x2='1483.8' y2='1443.1' style="stroke-width:3.0;stroke:rgb(0,0,0);stroke-linecap:round;fill:none;" />
<text x="1479.5" y="1452.1" font-size="26.0px" font-family="CMUBright-Roman" style="text-anchor:start;fill:rgb(0,0,0);" transform="rotate(42.5,1479.5,1452.1)" >150</text>
<line x1='1462.6' y1='1456.7' x2='1465.5' y2='1459.5' style="stroke-width:3.0;stroke:rgb(0,0,0);stroke-linecap:round;fill:none;" />
<line x1='1445.2' y1='1473.7' x2='1448.0' y2='1476.6' style="stroke-width:3.0;stroke:rgb(0,0,0);stroke-linecap:round;fill:none;" />
<text x="1443.0" y="1485.2" font-size="26.0px" font-family="CMUBright-Roman" style="text-anchor:start;fill:rgb(0,0,0);" transform="rotate(46.8,1443.0,1485.2)" >160</text>
<line x1='1427.2' y1='1490.0' x2='1429.8' y2='1493.0' style="stroke-width:3.0;stroke:rgb(0,0,0);stroke-linecap:round;fill:none;" />
<line x1='1408.6' y1='1505.6' x2='1411.1' y2='1508.7' style="stroke-width:3.0;stroke:rgb(0,0,0);stroke-linecap:round;fill:none;" />
<text x="1405.5" y="1517.0" font-size="26.0px" font-family="CMUBright-Roman" style="text-anchor:start;fill:rgb(0,0,0);" transform="rotate(51.1,1405.5,1517.0)" >170</text>
<line x1='1389.4' y1='1520.5' x2='1391.8' y2='1523.7' style="stroke-width:3.0;stroke:rgb(0,0,0);stroke-linecap:round;fill:none;" />
<line x1='1369.6' y1='1534.7' x2='1371.9' y2='1538.0' style="stroke-width:3.0;stroke:rgb(0,0,0);stroke-linecap:round;fill:none;" />
<text x="1365.8" y="1545.8" font-size="26.0px" font-family="CMUBright-Roman" style="text-anchor:start;fill:rgb(0,0,0);" transform="rotate(55.3,1365.8,1545.8)" >180</text>
<line x1='1349.4' y1='1548.2' x2='1351.5' y2='1551.6' style="stroke-width:3.0;stroke:rgb(0,0,0);stroke-linecap:round;fill:none;" />
<line x1='1328.6' y1='1560.9' x2='1330.7' y2='1564.3' style="stroke-width:3.0;stroke:rgb(0,0,0);stroke-linecap:round;fill:none;" />
<text x="1323.9" y="1571.7" font-size="26.0px" font-family="CMUBright-Roman" style="text-anchor:start;fill:rgb(0,0,0);" transform="rotate(59.6,1323.9,1571.7)" >190</text>
<line x1='1307.4' y1='1572.8' x2='1309.3' y2='1576.3' style="stroke-width:3.0;stroke:rgb(0,0,0);stroke-linecap:round;fill:none;" />
<line x1='1285.8' y1='1583.9' x2='1288.4' y2='1589.3' style="stroke-width:3.0;stroke:rgb(0,0,0);stroke-linecap:round;fill:none;" />
<text x="1281.2" y="1596.1" font-size="26.0px" font-family="CMUBright-Roman" style="text-anchor:start;fill:rgb(0,0,0);" transform="rotate(63.9,1281.2,1596.1)" >200</text>
<line x1='1263.8' y1='1594.1' x2='1265.4' y2='1597.8' style="stroke-width:3.0;stroke:rgb(0,0,0);stroke-linecap:round;fill:none;" />
<line x1='1241.4' y1='1603.6' x2='1242.9' y2='1607.3' style="stroke-width:3.0;stroke:rgb(0,0,0);stroke-linecap:round;fill:none;" />
<text x="1235.1" y="1613.6" font-size="26.0px" font-family="CMUBright-Roman" style="text-anchor:start;fill:rgb(0,0,0);" transform="rotate(68.2,1235.1,1613.6)" >210</text>
<line x1='1218.6' y1='1612.2' x2='1220.0' y2='1616.0' style="stroke-width:3.0;stroke:rgb(0,0,0);stroke-linecap:round;fill:none;" />
<line x1='1195.6' y1='1619.9' x2='1196.8' y2='1623.8' style="stroke-width:3.0;stroke:rgb(0,0,0);stroke-linecap:round;fill:none;" />
<text x="1188.6" y="1629.4" font-size="26.0px" font-family="CMUBright-Roman" style="text-anchor:start;fill:rgb(0,0,0);" transform="rotate(72.5,1188.6,1629.4)" >220</text>
<path d="M1584.921,765.975 A630.000,630.000 40.000 0,1 1180.531,1603.580 L1186.263,1622.741 A650.000,650.000 0.000 0,0 1603.490,758.546 Z" style="stroke-width:1.0;stroke:rgb(0,0,0);stroke-linecap:round;fill:none;" />
<g id="highlighttrack_1">
<path d="M1152.519,1724.112 A740.000,740.000 40.000 0,1 1070.475,1736.636 L1071.904,1751.568 A755.000,755.000 0.000 0,0 1155.610,1738.790 Z" style="stroke-width:1.0;stroke:rgb(0,0,0);stroke-linecap:round;fill:rgb(142,84,228);" />
<path d="M1070.475,1736.636 A740.000,740.000 40.000 0,1 993.080,1739.968 L992.940,1754.967 A755.000,755.000 0.000 0,0 1071.904,1751.568 Z" style="stroke-width:1.0;stroke:rgb(0,0,0);stroke-linecap:round;fill:rgb(221,234,106);" />
</g>
<g id="highlighttrack_2">
<path d="M1156.641,1743.682 A760.000,760.000 40.000 0,1 1072.380,1756.546 L1073.808,1771.477 A775.000,775.000 0.000 0,0 1159.732,1758.360 Z" style="stroke-width:1.0;stroke:rgb(0,0,0);stroke-linecap:round;fill:rgb(142,84,228);" />
<path d="M1072.380,1756.546 A760.000,760.000 40.000 0,1 992.893,1759.967 L992.753,1774.966 A775.000,775.000 0.000 0,0 1073.808,1771.477 Z" style="stroke-width:1.0;stroke:rgb(0,0,0);stroke-linecap:round;fill:rgb(221,234,106);" />
</g>
<g id="highlighttrack_3">
<path d="M1062.571,1606.149 A609.370,609.370 40.000 0,1 994.302,1609.343 L994.208,1619.343 A619.370,619.370 0.000 0,0 1063.597,1616.096 Z" style="stroke-width:1.0;stroke:rgb(0,0,0);stroke-linecap:round;fill:rgb(142,84,228);" />
<path d="M1125.595,1596.287 A609.370,609.370 40.000 0,1 1062.571,1606.149 L1063.597,1616.096 A619.370,619.370 0.000 0,0 1127.656,1606.072 Z" style="stroke-width:1.0;stroke:rgb(0,0,0);stroke-linecap:round;fill:rgb(221,234,106);" />
</g>
<path d="M1129.847,1616.474 A630.000,630.000 40.000 0,1 994.109,1629.972 L993.922,1649.972 A650.000,650.000 0.000 0,0 1133.969,1636.044 Z" style="stroke-width:1.0;stroke:rgb(0,0,0);stroke-linecap:round;fill:rgb(230,46,230);" />
<text x="1085.3" y="1857.5" font-size="46.8px" font-family="CMUBright-Roman" style="text-anchor:middle;fill:rgb(0,0,0);" transform="rotate(-5.7,1085.3,1857.5)" >g</text>
<line x1='1134.0' y1='1636.1' x2='1135.2' y2='1642.0' style="stroke-width:3.0;stroke:rgb(0,0,0);stroke-linecap:round;fill:none;" />
<text x="1126.5" y="1646.8" font-size="26.0px" font-family="CMUBright-Roman" style="text-anchor:start;fill:rgb(0,0,0);" transform="rotate(78.1,1126.5,1646.8)" >0</text>
<line x1='1110.1' y1='1640.7' x2='1110.8' y2='1644.6' style="stroke-width:3.0;stroke:rgb(0,0,0);stroke-linecap:round;fill:none;" />
<line x1='1086.1' y1='1644.3' x2='1086.6' y2='1648.3' style="stroke-width:3.0;stroke:rgb(0,0,0);stroke-linecap:round;fill:none;" />
<text x="1077.6" y="1652.5" font-size="26.0px" font-family="CMUBright-Roman" style="text-anchor:start;fill:rgb(0,0,0);" transform="rotate(82.4,1077.6,1652.5)" >10</text>
<line x1='1061.9' y1='1647.1' x2='1062.3' y2='1651.1' style="stroke-width:3.0;stroke:rgb(0,0,0);stroke-linecap:round;fill:none;" />
<line x1='1037.7' y1='1649.0' x2='1037.9' y2='1653.0' style="stroke-width:3.0;stroke:rgb(0,0,0);stroke-linecap:round;fill:none;" />
<text x="1028.6" y="1656.4" font-size="26.0px" font-family="CMUBright-Roman" style="text-anchor:start;fill:rgb(0,0,0);" transform="rotate(86.7,1028.6,1656.4)" >20</text>
<line x1='1013.4' y1='1649.9' x2='1013.5' y2='1653.9' style="stroke-width:3.0;stroke:rgb(0,0,0);stroke-linecap:round;fill:none;" />
<path d="M1129.847,1616.474 A630.000,630.000 40.000 0,1 994.109,1629.972 L993.922,1649.972 A650.000,650.000 0.000 0,0 1133.969,1636.044 Z" style="stroke-width:1.0;stroke:rgb(0,0,0);stroke-linecap:round;fill:none;" />
<g id="highlighttrack_1">
<path d="M931.730,1736.844 A740.000,740.000 40.000 0,1 838.825,1722.235 L835.558,1736.874 A755.000,755.000 0.000 0,0 930.346,1751.780 Z" style="stroke-width:1.0;stroke:rgb(0,0,0);stroke-linecap:round;fill:rgb(221,234,106);" />
<path d="M838.825,1722.235 A740.000,740.000 40.000 0,1 790.601,1709.755 L786.356,1724.142 A755.000,755.000 0.000 0,0 835.558,1736.874 Z" style="stroke-width:1.0;stroke:rgb(0,0,0);stroke-linecap:round;fill:rgb(142,84,228);" />
</g>
<g id="highlighttrack_2">
<path d="M929.884,1756.759 A760.000,760.000 40.000 0,1 834.469,1741.754 L831.202,1756.394 A775.000,775.000 0.000 0,0 928.501,1771.695 Z" style="stroke-width:1.0;stroke:rgb(0,0,0);stroke-linecap:round;fill:rgb(221,234,106);" />
<path d="M834.469,1741.754 A760.000,760.000 40.000 0,1 784.941,1728.937 L780.697,1743.324 A775.000,775.000 0.000 0,0 831.202,1756.394 Z" style="stroke-width:1.0;stroke:rgb(0,0,0);stroke-linecap:round;fill:rgb(142,84,228);" />
</g>
<g id="highlighttrack_3">
<path d="M867.277,1594.741 A609.370,609.370 40.000 0,1 827.565,1584.464 L824.736,1594.055 A619.370,619.370 0.000 0,0 865.099,1604.501 Z" style="stroke-width:1.0;stroke:rgb(0,0,0);stroke-linecap:round;fill:rgb(142,84,228);" />
<path d="M943.781,1606.771 A609.370,609.370 40.000 0,1 867.277,1594.741 L865.099,1604.501 A619.370,619.370 0.000 0,0 942.859,1616.729 Z" style="stroke-width:1.0;stroke:rgb(0,0,0);stroke-linecap:round;fill:rgb(221,234,106);" />
</g>
<path d="M941.878,1627.313 A630.000,630.000 40.000 0,1 821.728,1604.251 L816.068,1623.433 A650.000,650.000 0.000 0,0 940.033,1647.228 Z" style="stroke-width:1.0;stroke:rgb(0,0,0);stroke-linecap:round;fill:rgb(77,46,230);" />
<text x="837.2" y="1848.3" font-size="46.8px" font-family="CMUBright-Roman" style="text-anchor:middle;fill:rgb(0,0,0);" transform="rotate(10.9,837.2,1848.3)" >f</text>
<line x1='940.0' y1='1647.3' x2='939.5' y2='1653.3' style="stroke-width:3.0;stroke:rgb(0,0,0);stroke-linecap:round;fill:none;" />
<text x="948.7" y="1657.1" font-size="26.0px" font-family="CMUBright-Roman" style="text-anchor:end;fill:rgb(0,0,0);" transform="rotate(-84.7,948.7,1657.1)" >0</text>
<line x1='915.9' y1='1644.6' x2='915.3' y2='1648.6' style="stroke-width:3.0;stroke:rgb(0,0,0);stroke-linecap:round;fill:none;" />
<line x1='891.8' y1='1641.0' x2='891.2' y2='1644.9' style="stroke-width:3.0;stroke:rgb(0,0,0);stroke-linecap:round;fill:none;" />
<text x="900.0" y="1649.4" font-size="26.0px" font-family="CMUBright-Roman" style="text-anchor:end;fill:rgb(0,0,0);" transform="rotate(-80.4,900.0,1649.4)" >10</text>
<line x1='867.9' y1='1636.5' x2='867.1' y2='1640.4' style="stroke-width:3.0;stroke:rgb(0,0,0);stroke-linecap:round;fill:none;" />
<line x1='844.2' y1='1631.1' x2='843.3' y2='1635.0' style="stroke-width:3.0;stroke:rgb(0,0,0);stroke-linecap:round;fill:none;" />
<text x="851.8" y="1640.1" font-size="26.0px" font-family="CMUBright-Roman" style="text-anchor:end;fill:rgb(0,0,0);" transform="rotate(-76.1,851.8,1640.1)" >20</text>
<line x1='820.7' y1='1624.9' x2='819.6' y2='1628.7' style="stroke-width:3.0;stroke:rgb(0,0,0);stroke-linecap:round;fill:none;" />
<path d="M941.878,1627.313 A630.000,630.000 40.000 0,1 821.728,1604.251 L816.068,1623.433 A650.000,650.000 0.000 0,0 940.033,1647.228 Z" style="stroke-width:1.0;stroke:rgb(0,0,0);stroke-linecap:round;fill:none;" />
<g id="highlighttrack_1">
<path d="M732.453,1689.941 A740.000,740.000 40.000 0,1 448.360,1493.248 L437.178,1503.246 A755.000,755.000 0.000 0,0 727.030,1703.926 Z" style="stroke-width:1.0;stroke:rgb(0,0,0);stroke-linecap:round;fill:rgb(221,234,106);" />
<path d="M448.360,1493.248 A740.000,740.000 40.000 0,1 318.534,1288.452 L304.721,1294.299 A755.000,755.000 0.000 0,0 437.178,1503.246 Z" style="stroke-width:1.0;stroke:rgb(0,0,0);stroke-linecap:round;fill:rgb(142,84,228);" />
</g>
<g id="highlighttrack_2">
<path d="M725.222,1708.588 A760.000,760.000 40.000 0,1 433.451,1506.579 L422.269,1516.577 A775.000,775.000 0.000 0,0 719.799,1722.574 Z" style="stroke-width:1.0;stroke:rgb(0,0,0);stroke-linecap:round;fill:rgb(221,234,106);" />
<path d="M433.451,1506.579 A760.000,760.000 40.000 0,1 300.116,1296.248 L286.303,1302.095 A775.000,775.000 0.000 0,0 422.269,1516.577 Z" style="stroke-width:1.0;stroke:rgb(0,0,0);stroke-linecap:round;fill:rgb(142,84,228);" />
</g>
<g id="highlighttrack_3">
<path d="M545.739,1406.176 A609.370,609.370 40.000 0,1 438.831,1237.532 L429.622,1241.430 A619.370,619.370 0.000 0,0 538.285,1412.842 Z" style="stroke-width:1.0;stroke:rgb(0,0,0);stroke-linecap:round;fill:rgb(142,84,228);" />
<path d="M779.683,1568.148 A609.370,609.370 40.000 0,1 545.739,1406.176 L538.285,1412.842 A619.370,619.370 0.000 0,0 776.067,1577.471 Z" style="stroke-width:1.0;stroke:rgb(0,0,0);stroke-linecap:round;fill:rgb(221,234,106);" />
</g>
<path d="M772.224,1587.382 A630.000,630.000 40.000 0,1 419.833,1245.574 L401.415,1253.370 A650.000,650.000 0.000 0,0 764.993,1606.029 Z" style="stroke-width:1.0;stroke:rgb(0,0,0);stroke-linecap:round;fill:rgb(46,168,230);" />
<text x="406.3" y="1612.1" font-size="46.8px" font-family="CMUBright-Roman" style="text-anchor:middle;fill:rgb(0,0,0);" transform="rotate(44.1,406.3,1612.1)" >e</text>
<line x1='765.0' y1='1606.1' x2='762.8' y2='1611.7' style="stroke-width:3.0;stroke:rgb(0,0,0);stroke-linecap:round;fill:none;" />
<text x="770.6" y="1617.9" font-size="26.0px" font-family="CMUBright-Roman" style="text-anchor:end;fill:rgb(0,0,0);" transform="rotate(-68.8,770.6,1617.9)" >0</text>
<line x1='742.5' y1='1596.9' x2='740.9' y2='1600.5' style="stroke-width:3.0;stroke:rgb(0,0,0);stroke-linecap:round;fill:none;" />
<line x1='720.3' y1='1586.8' x2='718.6' y2='1590.4' style="stroke-width:3.0;stroke:rgb(0,0,0);stroke-linecap:round;fill:none;" />
<text x="725.9" y="1597.2" font-size="26.0px" font-family="CMUBright-Roman" style="text-anchor:end;fill:rgb(0,0,0);" transform="rotate(-64.5,725.9,1597.2)" >10</text>
<line x1='698.6' y1='1576.0' x2='696.7' y2='1579.5' style="stroke-width:3.0;stroke:rgb(0,0,0);stroke-linecap:round;fill:none;" />
<line x1='677.3' y1='1564.3' x2='675.3' y2='1567.8' style="stroke-width:3.0;stroke:rgb(0,0,0);stroke-linecap:round;fill:none;" />
<text x="682.1" y="1575.0" font-size="26.0px" font-family="CMUBright-Roman" style="text-anchor:end;fill:rgb(0,0,0);" transform="rotate(-60.2,682.1,1575.0)" >20</text>
<line x1='656.4' y1='1551.8' x2='654.3' y2='1555.2' style="stroke-width:3.0;stroke:rgb(0,0,0);stroke-linecap:round;fill:none;" />
<line x1='636.0' y1='1538.6' x2='633.7' y2='1541.9' style="stroke-width:3.0;stroke:rgb(0,0,0);stroke-linecap:round;fill:none;" />
<text x="640.0" y="1549.6" font-size="26.0px" font-family="CMUBright-Roman" style="text-anchor:end;fill:rgb(0,0,0);" transform="rotate(-55.9,640.0,1549.6)" >30</text>
<line x1='616.1' y1='1524.6' x2='613.7' y2='1527.8' style="stroke-width:3.0;stroke:rgb(0,0,0);stroke-linecap:round;fill:none;" />
<line x1='596.7' y1='1509.9' x2='594.3' y2='1513.0' style="stroke-width:3.0;stroke:rgb(0,0,0);stroke-linecap:round;fill:none;" />
<text x="599.9" y="1521.2" font-size="26.0px" font-family="CMUBright-Roman" style="text-anchor:end;fill:rgb(0,0,0);" transform="rotate(-51.7,599.9,1521.2)" >40</text>
<line x1='578.0' y1='1494.4' x2='575.4' y2='1497.5' style="stroke-width:3.0;stroke:rgb(0,0,0);stroke-linecap:round;fill:none;" />
<line x1='559.8' y1='1478.3' x2='555.7' y2='1482.7' style="stroke-width:3.0;stroke:rgb(0,0,0);stroke-linecap:round;fill:none;" />
<text x="560.7" y="1491.3" font-size="26.0px" font-family="CMUBright-Roman" style="text-anchor:end;fill:rgb(0,0,0);" transform="rotate(-47.4,560.7,1491.3)" >50</text>
<line x1='542.2' y1='1461.5' x2='539.4' y2='1464.3' style="stroke-width:3.0;stroke:rgb(0,0,0);stroke-linecap:round;fill:none;" />
<line x1='525.2' y1='1444.1' x2='522.3' y2='1446.8' style="stroke-width:3.0;stroke:rgb(0,0,0);stroke-linecap:round;fill:none;" />
<text x="526.7" y="1455.7" font-size="26.0px" font-family="CMUBright-Roman" style="text-anchor:end;fill:rgb(0,0,0);" transform="rotate(-43.1,526.7,1455.7)" >60</text>
<line x1='509.0' y1='1426.0' x2='506.0' y2='1428.6' style="stroke-width:3.0;stroke:rgb(0,0,0);stroke-linecap:round;fill:none;" />
<line x1='493.4' y1='1407.3' x2='490.3' y2='1409.8' style="stroke-width:3.0;stroke:rgb(0,0,0);stroke-linecap:round;fill:none;" />
<text x="493.9" y="1419.1" font-size="26.0px" font-family="CMUBright-Roman" style="text-anchor:end;fill:rgb(0,0,0);" transform="rotate(-38.8,493.9,1419.1)" >70</text>
<line x1='478.5' y1='1388.1' x2='475.3' y2='1390.5' style="stroke-width:3.0;stroke:rgb(0,0,0);stroke-linecap:round;fill:none;" />
<line x1='464.4' y1='1368.3' x2='461.1' y2='1370.6' style="stroke-width:3.0;stroke:rgb(0,0,0);stroke-linecap:round;fill:none;" />
<text x="464.0" y="1380.1" font-size="26.0px" font-family="CMUBright-Roman" style="text-anchor:end;fill:rgb(0,0,0);" transform="rotate(-34.5,464.0,1380.1)" >80</text>
<line x1='451.0' y1='1348.1' x2='447.6' y2='1350.2' style="stroke-width:3.0;stroke:rgb(0,0,0);stroke-linecap:round;fill:none;" />
<line x1='438.3' y1='1327.3' x2='434.9' y2='1329.3' style="stroke-width:3.0;stroke:rgb(0,0,0);stroke-linecap:round;fill:none;" />
<text x="437.1" y="1339.0" font-size="26.0px" font-family="CMUBright-Roman" style="text-anchor:end;fill:rgb(0,0,0);" transform="rotate(-30.2,437.1,1339.0)" >90</text>
<line x1='426.5' y1='1306.0' x2='423.0' y2='1307.9' style="stroke-width:3.0;stroke:rgb(0,0,0);stroke-linecap:round;fill:none;" />
<line x1='415.4' y1='1284.4' x2='410.0' y2='1287.0' style="stroke-width:3.0;stroke:rgb(0,0,0);stroke-linecap:round;fill:none;" />
<text x="411.6" y="1296.8" font-size="26.0px" font-family="CMUBright-Roman" style="text-anchor:end;fill:rgb(0,0,0);" transform="rotate(-25.9,411.6,1296.8)" >100</text>
<line x1='405.2' y1='1262.3' x2='401.6' y2='1263.9' style="stroke-width:3.0;stroke:rgb(0,0,0);stroke-linecap:round;fill:none;" />
<path d="M772.224,1587.382 A630.000,630.000 40.000 0,1 419.833,1245.574 L401.415,1253.370 A650.000,650.000 0.000 0,0 764.993,1606.029 Z" style="stroke-width:1.0;stroke:rgb(0,0,0);stroke-linecap:round;fill:none;" />
<g id="highlighttrack_1">
<path d="M296.957,1230.935 A740.000,740.000 40.000 0,1 264.304,1079.700 L249.392,1081.315 A755.000,755.000 0.000 0,0 282.707,1235.616 Z" style="stroke-width:1.0;stroke:rgb(0,0,0);stroke-linecap:round;fill:rgb(221,234,106);" />
<path d="M264.304,1079.700 A740.000,740.000 40.000 0,1 260.051,991.281 L245.052,991.105 A755.000,755.000 0.000 0,0 249.392,1081.315 Z" style="stroke-width:1.0;stroke:rgb(0,0,0);stroke-linecap:round;fill:rgb(142,84,228);" />
</g>
<g id="highlighttrack_2">
<path d="M277.956,1237.177 A760.000,760.000 40.000 0,1 244.421,1081.854 L229.508,1083.469 A775.000,775.000 0.000 0,0 263.705,1241.858 Z" style="stroke-width:1.0;stroke:rgb(0,0,0);stroke-linecap:round;fill:rgb(221,234,106);" />
<path d="M244.421,1081.854 A760.000,760.000 40.000 0,1 240.053,991.046 L225.054,990.869 A775.000,775.000 0.000 0,0 229.508,1083.469 Z" style="stroke-width:1.0;stroke:rgb(0,0,0);stroke-linecap:round;fill:rgb(142,84,228);" />
</g>
<g id="highlighttrack_3">
<path d="M394.175,1065.631 A609.370,609.370 40.000 0,1 390.672,992.820 L380.673,992.703 A619.370,619.370 0.000 0,0 384.233,1066.708 Z" style="stroke-width:1.0;stroke:rgb(0,0,0);stroke-linecap:round;fill:rgb(142,84,228);" />
<path d="M421.063,1190.169 A609.370,609.370 40.000 0,1 394.175,1065.631 L384.233,1066.708 A619.370,619.370 0.000 0,0 411.563,1193.290 Z" style="stroke-width:1.0;stroke:rgb(0,0,0);stroke-linecap:round;fill:rgb(221,234,106);" />
</g>
<path d="M401.464,1196.607 A630.000,630.000 40.000 0,1 370.044,992.577 L350.045,992.342 A650.000,650.000 0.000 0,0 382.463,1202.849 Z" style="stroke-width:1.0;stroke:rgb(0,0,0);stroke-linecap:round;fill:rgb(46,230,138);" />
<text x="146.3" y="1131.5" font-size="46.8px" font-family="CMUBright-Roman" style="text-anchor:middle;fill:rgb(0,0,0);" transform="rotate(81.2,146.3,1131.5)" >d</text>
<line x1='382.4' y1='1202.9' x2='376.7' y2='1204.7' style="stroke-width:3.0;stroke:rgb(0,0,0);stroke-linecap:round;fill:none;" />
<text x="376.9" y="1214.7" font-size="26.0px" font-family="CMUBright-Roman" style="text-anchor:end;fill:rgb(0,0,0);" transform="rotate(-18.2,376.9,1214.7)" >0</text>
<line x1='375.2' y1='1179.6' x2='371.4' y2='1180.7' style="stroke-width:3.0;stroke:rgb(0,0,0);stroke-linecap:round;fill:none;" />
<line x1='369.0' y1='1156.1' x2='365.1' y2='1157.1' style="stroke-width:3.0;stroke:rgb(0,0,0);stroke-linecap:round;fill:none;" />
<text x="364.5" y="1167.0" font-size="26.0px" font-family="CMUBright-Roman" style="text-anchor:end;fill:rgb(0,0,0);" transform="rotate(-13.9,364.5,1167.0)" >10</text>
<line x1='363.6' y1='1132.4' x2='359.7' y2='1133.3' style="stroke-width:3.0;stroke:rgb(0,0,0);stroke-linecap:round;fill:none;" />
<line x1='359.1' y1='1108.5' x2='355.1' y2='1109.2' style="stroke-width:3.0;stroke:rgb(0,0,0);stroke-linecap:round;fill:none;" />
<text x="353.8" y="1119.1" font-size="26.0px" font-family="CMUBright-Roman" style="text-anchor:end;fill:rgb(0,0,0);" transform="rotate(-9.6,353.8,1119.1)" >20</text>
<line x1='355.5' y1='1084.5' x2='351.5' y2='1085.0' style="stroke-width:3.0;stroke:rgb(0,0,0);stroke-linecap:round;fill:none;" />
<line x1='352.7' y1='1060.3' x2='348.8' y2='1060.7' style="stroke-width:3.0;stroke:rgb(0,0,0);stroke-linecap:round;fill:none;" />
<text x="346.7" y="1070.4" font-size="26.0px" font-family="CMUBright-Roman" style="text-anchor:end;fill:rgb(0,0,0);" transform="rotate(-5.3,346.7,1070.4)" >30</text>
<line x1='350.9' y1='1036.1' x2='346.9' y2='1036.3' style="stroke-width:3.0;stroke:rgb(0,0,0);stroke-linecap:round;fill:none;" />
<line x1='350.0' y1='1011.8' x2='346.0' y2='1011.9' style="stroke-width:3.0;stroke:rgb(0,0,0);stroke-linecap:round;fill:none;" />
<text x="343.3" y="1021.4" font-size="26.0px" font-family="CMUBright-Roman" style="text-anchor:end;fill:rgb(0,0,0);" transform="rotate(-1.0,343.3,1021.4)" >40</text>
<path d="M401.464,1196.607 A630.000,630.000 40.000 0,1 370.044,992.577 L350.045,992.342 A650.000,650.000 0.000 0,0 382.463,1202.849 Z" style="stroke-width:1.0;stroke:rgb(0,0,0);stroke-linecap:round;fill:none;" />
<g id="highlighttrack_1">
<path d="M263.324,929.938 A740.000,740.000 40.000 0,1 295.673,773.013 L281.396,768.412 A755.000,755.000 0.000 0,0 248.392,928.518 Z" style="stroke-width:1.0;stroke:rgb(0,0,0);stroke-linecap:round;fill:rgb(221,234,106);" />
<path d="M295.673,773.013 A740.000,740.000 40.000 0,1 327.816,690.534 L314.191,684.261 A755.000,755.000 0.000 0,0 281.396,768.412 Z" style="stroke-width:1.0;stroke:rgb(0,0,0);stroke-linecap:round;fill:rgb(142,84,228);" />
</g>
<g id="highlighttrack_2">
<path d="M243.414,928.045 A760.000,760.000 40.000 0,1 276.637,766.878 L262.360,762.277 A775.000,775.000 0.000 0,0 228.481,926.625 Z" style="stroke-width:1.0;stroke:rgb(0,0,0);stroke-linecap:round;fill:rgb(221,234,106);" />
<path d="M276.637,766.878 A760.000,760.000 40.000 0,1 309.649,682.170 L296.024,675.897 A775.000,775.000 0.000 0,0 262.360,762.277 Z" style="stroke-width:1.0;stroke:rgb(0,0,0);stroke-linecap:round;fill:rgb(142,84,228);" />
</g>
<g id="highlighttrack_3">
<path d="M420.006,813.082 A609.370,609.370 40.000 0,1 446.475,745.163 L437.391,740.981 A619.370,619.370 0.000 0,0 410.488,810.015 Z" style="stroke-width:1.0;stroke:rgb(0,0,0);stroke-linecap:round;fill:rgb(142,84,228);" />
<path d="M393.367,942.306 A609.370,609.370 40.000 0,1 420.006,813.082 L410.488,810.015 A619.370,619.370 0.000 0,0 383.412,941.359 Z" style="stroke-width:1.0;stroke:rgb(0,0,0);stroke-linecap:round;fill:rgb(221,234,106);" />
</g>
<path d="M372.830,940.353 A630.000,630.000 40.000 0,1 427.735,736.536 L409.568,728.172 A650.000,650.000 0.000 0,0 352.920,938.459 Z" style="stroke-width:1.0;stroke:rgb(0,0,0);stroke-linecap:round;fill:rgb(107,230,46);" />
<text x="199.8" y="784.4" font-size="46.8px" font-family="CMUBright-Roman" style="text-anchor:middle;fill:rgb(0,0,0);" transform="rotate(-74.9,199.8,784.4)" >c</text>
<line x1='352.9' y1='938.5' x2='346.9' y2='937.9' style="stroke-width:3.0;stroke:rgb(0,0,0);stroke-linecap:round;fill:none;" />
<text x="343.1" y="947.1" font-size="26.0px" font-family="CMUBright-Roman" style="text-anchor:end;fill:rgb(0,0,0);" transform="rotate(5.4,343.1,947.1)" >0</text>
<line x1='355.6' y1='914.3' x2='351.6' y2='913.8' style="stroke-width:3.0;stroke:rgb(0,0,0);stroke-linecap:round;fill:none;" />
<line x1='359.3' y1='890.3' x2='355.3' y2='889.6' style="stroke-width:3.0;stroke:rgb(0,0,0);stroke-linecap:round;fill:none;" />
<text x="350.8" y="898.5" font-size="26.0px" font-family="CMUBright-Roman" style="text-anchor:end;fill:rgb(0,0,0);" transform="rotate(9.7,350.8,898.5)" >10</text>
<line x1='363.8' y1='866.4' x2='359.9' y2='865.6' style="stroke-width:3.0;stroke:rgb(0,0,0);stroke-linecap:round;fill:none;" />
<line x1='369.3' y1='842.7' x2='365.4' y2='841.7' style="stroke-width:3.0;stroke:rgb(0,0,0);stroke-linecap:round;fill:none;" />
<text x="360.2" y="850.2" font-size="26.0px" font-family="CMUBright-Roman" style="text-anchor:end;fill:rgb(0,0,0);" transform="rotate(14.0,360.2,850.2)" >20</text>
<line x1='375.6' y1='819.2' x2='371.7' y2='818.1' style="stroke-width:3.0;stroke:rgb(0,0,0);stroke-linecap:round;fill:none;" />
<line x1='382.8' y1='796.0' x2='379.0' y2='794.7' style="stroke-width:3.0;stroke:rgb(0,0,0);stroke-linecap:round;fill:none;" />
<text x="373.2" y="802.8" font-size="26.0px" font-family="CMUBright-Roman" style="text-anchor:end;fill:rgb(0,0,0);" transform="rotate(18.3,373.2,802.8)" >30</text>
<line x1='390.8' y1='773.0' x2='387.1' y2='771.6' style="stroke-width:3.0;stroke:rgb(0,0,0);stroke-linecap:round;fill:none;" />
<line x1='399.8' y1='750.4' x2='396.1' y2='748.9' style="stroke-width:3.0;stroke:rgb(0,0,0);stroke-linecap:round;fill:none;" />
<text x="389.7" y="756.5" font-size="26.0px" font-family="CMUBright-Roman" style="text-anchor:end;fill:rgb(0,0,0);" transform="rotate(22.6,389.7,756.5)" >40</text>
<line x1='409.5' y1='728.1' x2='405.9' y2='726.5' style="stroke-width:3.0;stroke:rgb(0,0,0);stroke-linecap:round;fill:none;" />
<path d="M372.830,940.353 A630.000,630.000 40.000 0,1 427.735,736.536 L409.568,728.172 A650.000,650.000 0.000 0,0 352.920,938.459 Z" style="stroke-width:1.0;stroke:rgb(0,0,0);stroke-linecap:round;fill:none;" />
<g id="highlighttrack_1">
<path d="M355.800,635.848 A740.000,740.000 40.000 0,1 503.973,450.858 L493.919,439.726 A755.000,755.000 0.000 0,0 342.742,628.467 Z" style="stroke-width:1.0;stroke:rgb(0,0,0);stroke-linecap:round;fill:rgb(221,234,106);" />
<path d="M503.973,450.858 A740.000,740.000 40.000 0,1 624.222,362.512 L616.605,349.590 A755.000,755.000 0.000 0,0 493.919,439.726 Z" style="stroke-width:1.0;stroke:rgb(0,0,0);stroke-linecap:round;fill:rgb(142,84,228);" />
</g>
<g id="highlighttrack_2">
<path d="M338.389,626.006 A760.000,760.000 40.000 0,1 490.567,436.016 L480.512,424.885 A775.000,775.000 0.000 0,0 325.331,618.625 Z" style="stroke-width:1.0;stroke:rgb(0,0,0);stroke-linecap:round;fill:rgb(221,234,106);" />
<path d="M490.567,436.016 A760.000,760.000 40.000 0,1 614.066,345.283 L606.449,332.360 A775.000,775.000 0.000 0,0 480.512,424.885 Z" style="stroke-width:1.0;stroke:rgb(0,0,0);stroke-linecap:round;fill:rgb(142,84,228);" />
</g>
<g id="highlighttrack_3">
<path d="M591.535,547.796 A609.370,609.370 40.000 0,1 690.557,475.046 L685.479,466.431 A619.370,619.370 0.000 0,0 584.832,540.375 Z" style="stroke-width:1.0;stroke:rgb(0,0,0);stroke-linecap:round;fill:rgb(142,84,228);" />
<path d="M469.519,700.131 A609.370,609.370 40.000 0,1 591.535,547.796 L584.832,540.375 A619.370,619.370 0.000 0,0 460.813,695.210 Z" style="stroke-width:1.0;stroke:rgb(0,0,0);stroke-linecap:round;fill:rgb(221,234,106);" />
</g>
<path d="M451.560,689.979 A630.000,630.000 40.000 0,1 680.081,457.274 L669.925,440.044 A650.000,650.000 0.000 0,0 434.149,680.137 Z" style="stroke-width:1.0;stroke:rgb(0,0,0);stroke-linecap:round;fill:rgb(230,199,46);" />
<text x="408.7" y="419.3" font-size="46.8px" font-family="CMUBright-Roman" style="text-anchor:middle;fill:rgb(0,0,0);" transform="rotate(-45.5,408.7,419.3)" >b</text>
<line x1='434.1' y1='680.1' x2='428.9' y2='677.2' style="stroke-width:3.0;stroke:rgb(0,0,0);stroke-linecap:round;fill:none;" />
<text x="421.6" y="684.0" font-size="26.0px" font-family="CMUBright-Roman" style="text-anchor:end;fill:rgb(0,0,0);" transform="rotate(29.5,421.6,684.0)" >0</text>
<line x1='446.5' y1='659.2' x2='443.0' y2='657.1' style="stroke-width:3.0;stroke:rgb(0,0,0);stroke-linecap:round;fill:none;" />
<line x1='459.6' y1='638.7' x2='456.3' y2='636.5' style="stroke-width:3.0;stroke:rgb(0,0,0);stroke-linecap:round;fill:none;" />
<text x="448.5" y="642.7" font-size="26.0px" font-family="CMUBright-Roman" style="text-anchor:end;fill:rgb(0,0,0);" transform="rotate(33.8,448.5,642.7)" >10</text>
<line x1='473.5' y1='618.7' x2='470.2' y2='616.4' style="stroke-width:3.0;stroke:rgb(0,0,0);stroke-linecap:round;fill:none;" />
<line x1='488.1' y1='599.3' x2='484.9' y2='596.9' style="stroke-width:3.0;stroke:rgb(0,0,0);stroke-linecap:round;fill:none;" />
<text x="476.8" y="602.5" font-size="26.0px" font-family="CMUBright-Roman" style="text-anchor:end;fill:rgb(0,0,0);" transform="rotate(38.1,476.8,602.5)" >20</text>
<line x1='503.4' y1='580.5' x2='500.4' y2='577.9' style="stroke-width:3.0;stroke:rgb(0,0,0);stroke-linecap:round;fill:none;" />
<line x1='519.5' y1='562.2' x2='516.5' y2='559.5' style="stroke-width:3.0;stroke:rgb(0,0,0);stroke-linecap:round;fill:none;" />
<text x="508.0" y="564.5" font-size="26.0px" font-family="CMUBright-Roman" style="text-anchor:end;fill:rgb(0,0,0);" transform="rotate(42.3,508.0,564.5)" >30</text>
<line x1='536.2' y1='544.5' x2='533.3' y2='541.7' style="stroke-width:3.0;stroke:rgb(0,0,0);stroke-linecap:round;fill:none;" />
<line x1='553.5' y1='527.5' x2='550.8' y2='524.6' style="stroke-width:3.0;stroke:rgb(0,0,0);stroke-linecap:round;fill:none;" />
<text x="541.9" y="529.0" font-size="26.0px" font-family="CMUBright-Roman" style="text-anchor:end;fill:rgb(0,0,0);" transform="rotate(46.6,541.9,529.0)" >40</text>
<line x1='571.5' y1='511.1' x2='568.9' y2='508.1' style="stroke-width:3.0;stroke:rgb(0,0,0);stroke-linecap:round;fill:none;" />
<line x1='590.1' y1='495.5' x2='586.3' y2='490.8' style="stroke-width:3.0;stroke:rgb(0,0,0);stroke-linecap:round;fill:none;" />
<text x="577.1" y="494.5" font-size="26.0px" font-family="CMUBright-Roman" style="text-anchor:end;fill:rgb(0,0,0);" transform="rotate(50.9,577.1,494.5)" >50</text>
<line x1='609.3' y1='480.5' x2='606.9' y2='477.3' style="stroke-width:3.0;stroke:rgb(0,0,0);stroke-linecap:round;fill:none;" />
<line x1='629.0' y1='466.2' x2='626.7' y2='462.9' style="stroke-width:3.0;stroke:rgb(0,0,0);stroke-linecap:round;fill:none;" />
<text x="617.2" y="466.0" font-size="26.0px" font-family="CMUBright-Roman" style="text-anchor:end;fill:rgb(0,0,0);" transform="rotate(55.2,617.2,466.0)" >60</text>
<line x1='649.2' y1='452.7' x2='647.0' y2='449.4' style="stroke-width:3.0;stroke:rgb(0,0,0);stroke-linecap:round;fill:none;" />
<line x1='669.9' y1='440.0' x2='667.9' y2='436.5' style="stroke-width:3.0;stroke:rgb(0,0,0);stroke-linecap:round;fill:none;" />
<text x="658.2" y="438.8" font-size="26.0px" font-family="CMUBright-Roman" style="text-anchor:end;fill:rgb(0,0,0);" transform="rotate(59.5,658.2,438.8)" >70</text>
<path d="M451.560,689.979 A630.000,630.000 40.000 0,1 680.081,457.274 L669.925,440.044 A650.000,650.000 0.000 0,0 434.149,680.137 Z" style="stroke-width:1.0;stroke:rgb(0,0,0);stroke-linecap:round;fill:none;" />
<g id="highlighttrack_1">
<path d="M678.392,333.541 A740.000,740.000 40.000 0,1 824.002,281.234 L820.435,266.664 A755.000,755.000 0.000 0,0 671.873,320.031 Z" style="stroke-width:1.0;stroke:rgb(0,0,0);stroke-linecap:round;fill:rgb(221,234,106);" />
<path d="M824.002,281.234 A740.000,740.000 40.000 0,1 938.623,262.550 L937.379,247.601 A755.000,755.000 0.000 0,0 820.435,266.664 Z" style="stroke-width:1.0;stroke:rgb(0,0,0);stroke-linecap:round;fill:rgb(142,84,228);" />
</g>
<g id="highlighttrack_2">
<path d="M669.700,315.528 A760.000,760.000 40.000 0,1 819.246,261.808 L815.678,247.238 A775.000,775.000 0.000 0,0 663.181,302.019 Z" style="stroke-width:1.0;stroke:rgb(0,0,0);stroke-linecap:round;fill:rgb(221,234,106);" />
<path d="M819.246,261.808 A760.000,760.000 40.000 0,1 936.964,242.619 L935.720,227.670 A775.000,775.000 0.000 0,0 815.678,247.238 Z" style="stroke-width:1.0;stroke:rgb(0,0,0);stroke-linecap:round;fill:rgb(142,84,228);" />
</g>
<g id="highlighttrack_3">
<path d="M855.071,408.115 A609.370,609.370 40.000 0,1 949.457,392.730 L948.628,382.764 A619.370,619.370 0.000 0,0 852.692,398.402 Z" style="stroke-width:1.0;stroke:rgb(0,0,0);stroke-linecap:round;fill:rgb(142,84,228);" />
<path d="M735.164,451.189 A609.370,609.370 40.000 0,1 855.071,408.115 L852.692,398.402 A619.370,619.370 0.000 0,0 730.818,442.182 Z" style="stroke-width:1.0;stroke:rgb(0,0,0);stroke-linecap:round;fill:rgb(221,234,106);" />
</g>
<path d="M726.198,432.609 A630.000,630.000 40.000 0,1 947.746,372.171 L946.088,352.240 A650.000,650.000 0.000 0,0 717.506,414.596 Z" style="stroke-width:1.0;stroke:rgb(0,0,0);stroke-linecap:round;fill:rgb(230,46,46);" />
<text x="781.9" y="200.5" font-size="46.8px" font-family="CMUBright-Roman" style="text-anchor:middle;fill:rgb(0,0,0);" transform="rotate(-15.3,781.9,200.5)" >a</text>
<line x1='717.5' y1='414.5' x2='714.9' y2='409.1' style="stroke-width:3.0;stroke:rgb(0,0,0);stroke-linecap:round;fill:none;" />
<text x="705.0" y="410.6" font-size="26.0px" font-family="CMUBright-Roman" style="text-anchor:end;fill:rgb(0,0,0);" transform="rotate(64.2,705.0,410.6)" >0</text>
<line x1='739.6' y1='404.4' x2='738.0' y2='400.7' style="stroke-width:3.0;stroke:rgb(0,0,0);stroke-linecap:round;fill:none;" />
<line x1='762.0' y1='395.1' x2='760.6' y2='391.3' style="stroke-width:3.0;stroke:rgb(0,0,0);stroke-linecap:round;fill:none;" />
<text x="750.6" y="392.1" font-size="26.0px" font-family="CMUBright-Roman" style="text-anchor:end;fill:rgb(0,0,0);" transform="rotate(68.5,750.6,392.1)" >10</text>
<line x1='784.8' y1='386.6' x2='783.5' y2='382.8' style="stroke-width:3.0;stroke:rgb(0,0,0);stroke-linecap:round;fill:none;" />
<line x1='807.9' y1='379.0' x2='806.7' y2='375.1' style="stroke-width:3.0;stroke:rgb(0,0,0);stroke-linecap:round;fill:none;" />
<text x="796.8" y="375.2" font-size="26.0px" font-family="CMUBright-Roman" style="text-anchor:end;fill:rgb(0,0,0);" transform="rotate(72.8,796.8,375.2)" >20</text>
<line x1='831.3' y1='372.2' x2='830.2' y2='368.4' style="stroke-width:3.0;stroke:rgb(0,0,0);stroke-linecap:round;fill:none;" />
<line x1='854.9' y1='366.3' x2='854.0' y2='362.4' style="stroke-width:3.0;stroke:rgb(0,0,0);stroke-linecap:round;fill:none;" />
<text x="844.0" y="361.7" font-size="26.0px" font-family="CMUBright-Roman" style="text-anchor:end;fill:rgb(0,0,0);" transform="rotate(77.1,844.0,361.7)" >30</text>
<line x1='878.7' y1='361.4' x2='877.9' y2='357.4' style="stroke-width:3.0;stroke:rgb(0,0,0);stroke-linecap:round;fill:none;" />
<line x1='902.6' y1='357.3' x2='902.0' y2='353.3' style="stroke-width:3.0;stroke:rgb(0,0,0);stroke-linecap:round;fill:none;" />
<text x="892.2" y="351.8" font-size="26.0px" font-family="CMUBright-Roman" style="text-anchor:end;fill:rgb(0,0,0);" transform="rotate(81.4,892.2,351.8)" >40</text>
<line x1='926.7' y1='354.1' x2='926.3' y2='350.1' style="stroke-width:3.0;stroke:rgb(0,0,0);stroke-linecap:round;fill:none;" />
<path d="M726.198,432.609 A630.000,630.000 40.000 0,1 947.746,372.171 L946.088,352.240 A650.000,650.000 0.000 0,0 717.506,414.596 Z" style="stroke-width:1.0;stroke:rgb(0,0,0);stroke-linecap:round;fill:none;" />
</g>
<g id="flow">
<path d="M 1495.620,628.543 A 619.370,619.370 0.00 0,1 1519.5,662.7 L 1519.5,662.7 1499.3,676.5 1479.2,691.4 1459.0,707.6 1438.7,724.9 1418.5,743.3 1398.3,762.6 1378.0,782.8 1357.8,803.9 1337.6,825.8 1317.4,848.4 1297.2,871.7 1277.2,895.6 1257.2,920.0 1237.3,945.0 1217.5,970.4 1197.9,996.2 1178.4,1022.3 1159.2,1048.7 1140.2,1075.3 1121.4,1102.2 1102.9,1129.2 1084.8,1156.2 1067.0,1183.4 1049.6,1210.5 1032.6,1237.7 1016.1,1264.7 1000.2,1291.7 984.8,1318.5 970.0,1345.1 955.9,1371.5 942.5,1397.7 929.8,1423.6 918.0,1449.2 907.0,1474.5 897.0,1499.3 887.9,1523.8 879.9,1547.9 873.0,1571.6 867.3,1594.7  A 609.370,609.370 0.00 0,1 827.6,1584.5 L 827.6,1584.5 835.1,1560.5 843.7,1536.1 853.3,1511.4 863.8,1486.4 875.1,1461.0 887.3,1435.4 900.2,1409.4 913.8,1383.3 928.1,1356.8 943.0,1330.2 958.5,1303.4 974.5,1276.4 991.0,1249.3 1008.0,1222.2 1025.3,1194.9 1043.0,1167.7 1061.1,1140.4 1079.4,1113.2 1098.1,1086.0 1116.9,1059.0 1136.0,1032.1 1155.3,1005.5 1174.8,979.1 1194.4,952.9 1214.1,927.1 1233.9,901.7 1253.8,876.6 1273.8,852.1 1293.8,828.1 1313.9,804.6 1334.0,781.8 1354.2,759.7 1374.3,738.2 1394.5,717.6 1414.7,697.9 1434.9,679.0 1455.1,661.1 1475.4,644.3 1495.6,628.5  Z" style="stroke-width: 1.0;  stroke: rgb(0,0,0); fill: rgb(142,84,228); opacity: 0.833;" />
<path d="M 1238.547,1571.590 A 619.370,619.370 0.00 0,1 1177.5,1593.4 L 1177.5,1593.4 1174.2,1582.6 1170.8,1571.9 1167.3,1561.4 1163.8,1551.2 1160.3,1541.3 1156.7,1531.8 1153.2,1522.7 1149.7,1514.2 1146.3,1506.2 1143.0,1498.8 1139.8,1492.0 1136.7,1486.0 1133.7,1480.6 1130.8,1476.0 1128.1,1472.1 1125.6,1469.0 1123.3,1466.8 1121.1,1465.3 1119.2,1464.7 1117.4,1464.8 1115.9,1465.8 1114.6,1467.7 1113.5,1470.3 1112.7,1473.7 1112.0,1477.9 1111.6,1482.8 1111.4,1488.4 1111.5,1494.7 1111.8,1501.7 1112.3,1509.3 1113.0,1517.5 1113.9,1526.1 1115.0,1535.3 1116.4,1544.8 1117.9,1554.7 1119.6,1564.9 1121.4,1575.2 1123.4,1585.7 1125.6,1596.3  A 609.370,609.370 0.00 0,1 1062.6,1606.1 L 1062.6,1606.1 1061.7,1595.2 1061.2,1584.2 1061.2,1573.4 1061.6,1562.7 1062.5,1552.2 1063.7,1542.0 1065.4,1532.2 1067.5,1522.8 1070.1,1513.8 1072.9,1505.4 1076.2,1497.6 1079.9,1490.4 1083.8,1483.8 1088.1,1478.0 1092.8,1472.8 1097.7,1468.4 1102.9,1464.7 1108.4,1461.9 1114.1,1459.8 1120.1,1458.6 1126.2,1458.1 1132.5,1458.5 1139.0,1459.7 1145.6,1461.7 1152.3,1464.5 1159.0,1468.1 1165.8,1472.4 1172.6,1477.5 1179.4,1483.3 1186.1,1489.8 1192.8,1496.9 1199.3,1504.7 1205.7,1512.9 1211.9,1521.8 1217.8,1531.0 1223.5,1540.7 1228.9,1550.7 1233.9,1561.1 1238.5,1571.6  Z" style="stroke-width: 1.0;  stroke: rgb(0,0,0); fill: rgb(221,234,106); opacity: 0.833;" />
<path d="M 1519.487,662.728 A 619.370,619.370 0.00 0,1 1554.0,723.0 L 1554.0,723.0 1536.0,732.8 1518.0,744.2 1499.9,757.1 1481.9,771.4 1463.9,787.1 1445.9,804.0 1428.0,822.1 1410.2,841.4 1392.5,861.6 1374.9,882.8 1357.4,904.9 1340.1,927.8 1323.0,951.5 1306.1,975.8 1289.5,1000.7 1273.1,1026.1 1257.1,1052.0 1241.4,1078.3 1226.1,1104.9 1211.2,1131.7 1196.7,1158.7 1182.8,1185.9 1169.3,1213.1 1156.4,1240.3 1144.2,1267.4 1132.6,1294.4 1121.6,1321.2 1111.4,1347.7 1102.0,1373.9 1093.5,1399.8 1085.8,1425.2 1079.1,1450.1 1073.3,1474.5 1068.6,1498.2 1065.0,1521.3 1062.5,1543.7 1061.2,1565.4 1061.2,1586.2 1062.6,1606.1  A 609.370,609.370 0.00 0,1 994.3,1609.3 L 994.3,1609.3 995.2,1587.4 997.3,1564.7 1000.6,1541.4 1005.0,1517.3 1010.5,1492.7 1017.0,1467.5 1024.5,1441.8 1032.8,1415.6 1042.0,1389.0 1052.1,1362.0 1062.8,1334.6 1074.3,1307.0 1086.4,1279.1 1099.1,1251.0 1112.4,1222.9 1126.2,1194.6 1140.4,1166.3 1155.2,1138.1 1170.3,1109.9 1185.8,1081.9 1201.7,1054.1 1217.9,1026.6 1234.3,999.3 1251.1,972.5 1268.0,946.2 1285.2,920.3 1302.5,895.1 1320.0,870.5 1337.7,846.6 1355.5,823.5 1373.4,801.2 1391.4,779.9 1409.5,759.6 1427.6,740.3 1445.9,722.2 1464.2,705.3 1482.6,689.7 1501.0,675.5 1519.5,662.7  Z" style="stroke-width: 1.0;  stroke: rgb(0,0,0); fill: rgb(142,84,228); opacity: 0.833;" />
<path d="M 1217.656,420.134 A 619.370,619.370 0.00 0,1 1285.3,450.3 L 1285.3,450.3 1276.0,466.7 1264.9,483.0 1252.4,499.2 1238.4,515.3 1222.9,531.3 1206.2,547.1 1188.3,562.7 1169.2,578.1 1149.0,593.3 1127.9,608.3 1105.8,623.0 1082.9,637.4 1059.2,651.5 1034.9,665.3 1009.9,678.7 984.4,691.8 958.5,704.4 932.2,716.6 905.6,728.3 878.7,739.5 851.7,750.2 824.6,760.3 797.5,769.9 770.4,778.8 743.5,787.1 716.8,794.6 690.4,801.5 664.3,807.6 638.6,812.9 613.4,817.3 588.8,820.9 564.8,823.5 541.5,825.2 519.0,826.0 497.2,825.6 476.4,824.2 456.6,821.7 437.7,818.0 420.0,813.1  A 609.370,609.370 0.00 0,1 446.5,745.2 L 446.5,745.2 461.8,751.4 478.3,756.5 495.9,760.4 514.5,763.3 534.0,765.2 554.3,766.0 575.5,765.8 597.3,764.7 619.8,762.6 642.8,759.7 666.3,755.9 690.2,751.2 714.4,745.7 738.9,739.5 763.6,732.5 788.4,724.8 813.2,716.4 838.0,707.3 862.7,697.6 887.2,687.4 911.4,676.5 935.3,665.1 958.8,653.3 981.8,640.9 1004.2,628.1 1026.1,614.9 1047.1,601.4 1067.5,587.4 1086.9,573.2 1105.4,558.7 1122.9,543.9 1139.4,528.9 1154.6,513.7 1168.7,498.3 1181.4,482.8 1192.7,467.2 1202.6,451.5 1210.9,435.8 1217.7,420.1  Z" style="stroke-width: 1.0;  stroke: rgb(0,0,0); fill: rgb(142,84,228); opacity: 0.833;" />
<path d="M 1285.339,450.272 A 619.370,619.370 0.00 0,1 1348.9,488.3 L 1348.9,488.3 1335.2,507.4 1320.1,526.5 1303.7,545.6 1286.1,564.6 1267.4,583.6 1247.6,602.5 1226.9,621.4 1205.2,640.2 1182.7,658.9 1159.4,677.6 1135.4,696.2 1110.7,714.6 1085.4,733.0 1059.5,751.1 1033.2,769.2 1006.5,787.0 979.5,804.6 952.1,822.0 924.5,839.1 896.6,855.9 868.7,872.4 840.6,888.5 812.5,904.2 784.5,919.5 756.4,934.3 728.5,948.6 700.7,962.3 673.2,975.4 645.8,987.9 618.8,999.7 592.0,1010.7 565.7,1021.0 539.7,1030.4 514.1,1038.8 489.1,1046.4 464.5,1052.9 440.5,1058.3 417.0,1062.6 394.2,1065.6  A 609.370,609.370 0.00 0,1 390.7,992.8 L 390.7,992.8 411.6,992.4 433.2,990.6 455.6,987.6 478.7,983.3 502.3,977.9 526.6,971.4 551.4,963.9 576.6,955.4 602.3,946.0 628.4,935.8 654.8,924.7 681.5,912.9 708.4,900.4 735.5,887.2 762.6,873.3 789.9,859.0 817.1,844.0 844.3,828.6 871.3,812.8 898.2,796.5 924.8,779.9 951.1,762.9 977.0,745.6 1002.5,728.1 1027.5,710.3 1051.9,692.3 1075.7,674.2 1098.8,655.8 1121.1,637.4 1142.5,618.8 1163.1,600.2 1182.6,581.5 1201.1,562.8 1218.4,544.0 1234.6,525.2 1249.4,506.4 1262.9,487.7 1274.9,469.0 1285.3,450.3  Z" style="stroke-width: 1.0;  stroke: rgb(0,0,0); fill: rgb(142,84,228); opacity: 0.833;" />
<path d="M 1309.116,1536.718 A 619.370,619.370 0.00 0,1 1238.5,1571.6 L 1238.5,1571.6 1233.6,1560.7 1228.0,1550.1 1221.8,1539.9 1215.0,1530.0 1207.7,1520.6 1199.9,1511.6 1191.7,1503.2 1183.1,1495.4 1174.1,1488.3 1164.9,1481.7 1155.4,1475.9 1145.7,1470.8 1135.8,1466.5 1125.8,1462.9 1115.7,1460.1 1105.6,1458.1 1095.4,1456.9 1085.3,1456.6 1075.3,1457.0 1065.4,1458.3 1055.6,1460.3 1046.0,1463.2 1036.6,1466.9 1027.5,1471.3 1018.7,1476.5 1010.2,1482.4 1002.0,1489.0 994.3,1496.2 986.9,1504.1 980.1,1512.6 973.7,1521.6 967.8,1531.1 962.5,1541.1 957.8,1551.4 953.6,1562.1 950.2,1573.0 947.3,1584.2 945.2,1595.4 943.8,1606.8  A 609.370,609.370 0.00 0,1 867.3,1594.7 L 867.3,1594.7 870.5,1582.9 874.7,1571.2 879.9,1559.6 886.1,1548.2 893.1,1537.2 901.0,1526.5 909.8,1516.1 919.3,1506.2 929.5,1496.8 940.3,1487.9 951.8,1479.6 963.9,1471.9 976.4,1464.8 989.5,1458.3 1002.9,1452.6 1016.8,1447.6 1030.9,1443.3 1045.3,1439.7 1059.9,1436.9 1074.6,1434.9 1089.5,1433.7 1104.3,1433.3 1119.2,1433.6 1134.0,1434.8 1148.7,1436.7 1163.3,1439.4 1177.5,1442.9 1191.5,1447.1 1205.2,1452.1 1218.4,1457.8 1231.1,1464.2 1243.4,1471.2 1255.0,1478.9 1266.0,1487.3 1276.3,1496.2 1285.8,1505.6 1294.5,1515.5 1302.3,1525.9 1309.1,1536.7  Z" style="stroke-width: 1.0;  stroke: rgb(0,0,0); fill: rgb(221,234,106); opacity: 0.833;" />
<path d="M 1000.000,380.630 A 619.370,619.370 0.00 0,1 1096.9,388.3 L 1096.9,388.3 1094.8,399.8 1092.1,411.2 1088.8,422.4 1085.0,433.3 1080.7,444.0 1076.0,454.2 1070.8,464.0 1065.2,473.3 1059.2,482.1 1052.8,490.2 1046.2,497.7 1039.2,504.6 1032.0,510.7 1024.6,516.1 1016.9,520.8 1009.1,524.6 1001.2,527.7 993.1,530.0 985.0,531.4 976.8,532.0 968.6,531.7 960.5,530.7 952.3,528.8 944.3,526.1 936.3,522.6 928.5,518.3 920.9,513.3 913.5,507.5 906.3,501.1 899.4,494.0 892.8,486.2 886.6,477.9 880.7,469.1 875.2,459.8 870.2,450.1 865.6,440.0 861.6,429.5 858.0,418.9 855.1,408.1  A 609.370,609.370 0.00 0,1 949.5,392.7 L 949.5,392.7 950.4,403.5 951.5,414.1 952.7,424.6 954.0,434.8 955.4,444.7 956.8,454.2 958.4,463.3 959.9,471.9 961.6,479.9 963.3,487.3 965.0,494.1 966.8,500.1 968.6,505.5 970.4,510.1 972.2,513.9 974.0,516.9 975.8,519.1 977.6,520.5 979.3,521.0 981.0,520.7 982.7,519.5 984.4,517.5 985.9,514.6 987.5,511.0 988.9,506.5 990.3,501.3 991.7,495.3 992.9,488.5 994.1,481.2 995.1,473.1 996.1,464.5 997.0,455.3 997.8,445.6 998.4,435.5 999.0,425.0 999.4,414.2 999.7,403.1 999.9,391.9 1000.0,380.6  Z" style="stroke-width: 1.0;  stroke: rgb(0,0,0); fill: rgb(142,84,228); opacity: 0.833;" />
<path d="M 1096.902,388.257 A 619.370,619.370 0.00 0,1 1217.7,420.1 L 1217.7,420.1 1211.9,433.4 1204.8,446.5 1196.4,459.4 1186.7,472.1 1175.8,484.4 1163.9,496.5 1150.8,508.1 1136.8,519.3 1121.9,530.1 1106.1,540.4 1089.5,550.2 1072.2,559.4 1054.3,568.1 1035.8,576.2 1016.8,583.7 997.3,590.6 977.5,596.8 957.4,602.3 937.0,607.1 916.5,611.2 895.9,614.6 875.2,617.3 854.7,619.2 834.2,620.4 813.9,620.8 794.0,620.5 774.3,619.4 755.1,617.5 736.3,614.9 718.1,611.5 700.5,607.3 683.7,602.4 667.6,596.8 652.3,590.4 638.0,583.3 624.7,575.4 612.5,566.9 601.4,557.7 591.5,547.8  A 609.370,609.370 0.00 0,1 690.6,475.0 L 690.6,475.0 697.1,485.2 704.5,494.9 712.8,504.2 721.8,512.9 731.6,521.1 742.0,528.7 753.0,535.8 764.5,542.1 776.5,547.8 788.9,552.7 801.7,557.0 814.8,560.4 828.2,563.2 841.7,565.1 855.4,566.2 869.2,566.6 883.0,566.1 896.8,564.9 910.5,562.9 924.1,560.0 937.6,556.4 950.8,552.0 963.8,546.9 976.4,541.0 988.7,534.5 1000.6,527.2 1012.0,519.3 1022.9,510.8 1033.3,501.6 1043.0,492.0 1052.2,481.8 1060.6,471.2 1068.3,460.1 1075.2,448.7 1081.4,437.0 1086.6,425.0 1091.0,412.9 1094.4,400.6 1096.9,388.3  Z" style="stroke-width: 1.0;  stroke: rgb(0,0,0); fill: rgb(142,84,228); opacity: 0.833;" />
<path d="M 1575.052,769.924 A 619.370,619.370 0.00 0,1 1610.3,894.5 L 1610.3,894.5 1590.7,897.2 1570.1,898.5 1548.6,898.6 1526.4,897.5 1503.3,895.2 1479.6,891.9 1455.2,887.5 1430.2,882.1 1404.7,875.9 1378.8,868.7 1352.5,860.7 1325.9,851.9 1299.0,842.3 1271.9,832.1 1244.7,821.1 1217.5,809.6 1190.2,797.5 1163.0,784.8 1136.0,771.7 1109.2,758.1 1082.7,744.0 1056.5,729.6 1030.7,714.8 1005.5,699.6 980.8,684.2 956.7,668.5 933.3,652.6 910.8,636.4 889.0,620.1 868.2,603.6 848.4,586.9 829.7,570.1 812.1,553.3 795.8,536.4 780.8,519.4 767.1,502.3 754.9,485.3 744.2,468.2 735.2,451.2  A 609.370,609.370 0.00 0,1 855.1,408.1 L 855.1,408.1 859.6,423.5 865.8,439.1 873.5,454.8 882.6,470.6 893.1,486.4 904.9,502.2 918.0,517.9 932.3,533.6 947.6,549.1 964.0,564.5 981.4,579.6 999.7,594.5 1018.8,609.1 1038.6,623.5 1059.2,637.4 1080.4,651.0 1102.1,664.1 1124.3,676.7 1146.9,688.9 1169.9,700.5 1193.1,711.5 1216.6,721.9 1240.1,731.6 1263.7,740.7 1287.3,749.0 1310.8,756.5 1334.2,763.3 1357.3,769.2 1380.1,774.3 1402.5,778.5 1424.5,781.7 1445.9,784.0 1466.8,785.2 1486.9,785.5 1506.3,784.6 1524.9,782.7 1542.6,779.6 1559.4,775.4 1575.1,769.9  Z" style="stroke-width: 1.0;  stroke: rgb(0,0,0); fill: rgb(221,234,106); opacity: 0.833;" />
<path d="M 1578.014,1222.528 A 619.370,619.370 0.00 0,1 1519.1,1337.9 L 1519.1,1337.9 1499.3,1325.7 1478.2,1314.0 1455.9,1303.0 1432.5,1292.4 1408.1,1282.3 1382.7,1272.8 1356.4,1263.6 1329.2,1254.9 1301.3,1246.6 1272.7,1238.7 1243.4,1231.2 1213.6,1224.0 1183.2,1217.2 1152.4,1210.8 1121.2,1204.7 1089.8,1199.0 1058.0,1193.6 1026.1,1188.6 994.0,1183.9 961.9,1179.6 929.8,1175.7 897.8,1172.1 865.8,1169.0 834.1,1166.2 802.6,1163.9 771.4,1162.0 740.6,1160.6 710.2,1159.7 680.4,1159.2 651.0,1159.4 622.3,1160.0 594.2,1161.3 566.8,1163.2 540.3,1165.8 514.5,1169.1 489.7,1173.2 465.8,1178.0 442.9,1183.6 421.1,1190.2  A 609.370,609.370 0.00 0,1 394.2,1065.6 L 394.2,1065.6 420.8,1063.1 448.0,1061.2 475.7,1059.9 504.1,1059.1 532.9,1058.8 562.3,1059.0 592.1,1059.6 622.3,1060.6 652.9,1062.0 683.9,1063.8 715.2,1065.9 746.7,1068.3 778.6,1071.0 810.7,1073.9 842.9,1077.2 875.3,1080.6 907.9,1084.3 940.5,1088.2 973.2,1092.4 1005.8,1096.7 1038.5,1101.2 1071.1,1105.9 1103.6,1110.9 1135.9,1116.0 1168.1,1121.3 1200.1,1126.8 1231.8,1132.5 1263.2,1138.4 1294.3,1144.6 1325.0,1151.0 1355.3,1157.7 1385.2,1164.6 1414.5,1171.8 1443.4,1179.4 1471.6,1187.2 1499.2,1195.5 1526.2,1204.1 1552.5,1213.1 1578.0,1222.5  Z" style="stroke-width: 1.0;  stroke: rgb(0,0,0); fill: rgb(221,234,106); opacity: 0.833;" />
<path d="M 1612.364,1092.896 A 619.370,619.370 0.00 0,1 1578.0,1222.5 L 1578.0,1222.5 1550.7,1212.2 1523.0,1202.2 1494.8,1192.4 1466.2,1182.8 1437.2,1173.4 1407.8,1164.2 1378.1,1155.1 1348.2,1146.2 1317.9,1137.4 1287.4,1128.8 1256.6,1120.3 1225.7,1111.9 1194.6,1103.6 1163.3,1095.5 1131.9,1087.4 1100.4,1079.5 1068.8,1071.7 1037.1,1063.9 1005.4,1056.3 973.7,1048.8 942.0,1041.4 910.3,1034.2 878.6,1027.1 847.0,1020.1 815.5,1013.2 784.1,1006.6 752.9,1000.1 721.7,993.8 690.8,987.7 660.0,981.8 629.4,976.2 599.0,970.8 568.8,965.7 538.9,960.9 509.2,956.4 479.8,952.3 450.7,948.6 421.9,945.2 393.4,942.3  A 609.370,609.370 0.00 0,1 420.0,813.1 L 420.0,813.1 448.3,822.1 476.9,830.9 505.8,839.6 534.9,848.2 564.3,856.6 593.9,864.9 623.7,873.2 653.7,881.3 683.9,889.4 714.3,897.3 744.9,905.2 775.5,913.1 806.4,920.9 837.3,928.6 868.3,936.2 899.5,943.8 930.7,951.3 962.0,958.8 993.3,966.3 1024.7,973.6 1056.1,980.9 1087.5,988.1 1118.9,995.3 1150.4,1002.4 1181.7,1009.4 1213.1,1016.3 1244.4,1023.1 1275.7,1029.8 1306.9,1036.4 1338.0,1042.9 1369.0,1049.2 1399.9,1055.3 1430.7,1061.3 1461.3,1067.1 1491.9,1072.7 1522.2,1078.1 1552.5,1083.3 1582.5,1088.2 1612.4,1092.9  Z" style="stroke-width: 1.0;  stroke: rgb(0,0,0); fill: rgb(221,234,106); opacity: 0.833;" />
<path d="M 1610.323,894.527 A 619.370,619.370 0.00 0,1 1612.4,1092.9 L 1612.4,1092.9 1584.4,1088.4 1556.2,1083.3 1527.5,1077.6 1498.6,1071.5 1469.4,1064.8 1439.8,1057.8 1410.1,1050.3 1380.0,1042.4 1349.8,1034.2 1319.4,1025.7 1288.8,1016.8 1258.1,1007.7 1227.2,998.3 1196.2,988.7 1165.2,978.9 1134.1,968.9 1103.0,958.7 1071.9,948.3 1040.8,937.8 1009.8,927.1 978.8,916.3 948.0,905.4 917.3,894.3 886.8,883.2 856.4,871.9 826.3,860.5 796.5,849.0 766.9,837.4 737.6,825.7 708.7,813.8 680.2,801.9 652.1,789.7 624.4,777.5 597.2,765.1 570.5,752.5 544.4,739.7 518.8,726.7 493.8,713.6 469.5,700.1  A 609.370,609.370 0.00 0,1 591.5,547.8 L 591.5,547.8 606.6,563.5 623.1,578.9 641.0,594.0 660.1,608.9 680.5,623.5 702.1,637.8 724.7,651.9 748.3,665.7 772.8,679.3 798.2,692.6 824.4,705.6 851.3,718.4 878.8,731.0 906.9,743.2 935.6,755.2 964.7,766.9 994.1,778.2 1023.9,789.3 1053.9,799.9 1084.2,810.2 1114.5,820.1 1144.9,829.6 1175.2,838.7 1205.5,847.3 1235.7,855.3 1265.7,862.9 1295.4,869.9 1324.8,876.2 1353.8,882.0 1382.4,887.0 1410.5,891.4 1438.0,894.9 1464.9,897.7 1491.1,899.6 1516.7,900.6 1541.4,900.7 1565.3,899.7 1588.3,897.7 1610.3,894.5  Z" style="stroke-width: 1.0;  stroke: rgb(0,0,0); fill: rgb(221,234,106); opacity: 0.833;" />
<path d="M 1348.940,488.277 A 619.370,619.370 0.00 0,1 1495.6,628.5 L 1495.6,628.5 1470.9,647.1 1446.2,665.9 1421.4,684.9 1396.7,704.0 1371.9,723.2 1347.1,742.6 1322.2,762.0 1297.4,781.6 1272.6,801.3 1247.7,821.1 1222.9,840.9 1198.0,860.9 1173.2,880.8 1148.3,900.9 1123.5,921.0 1098.7,941.1 1073.9,961.2 1049.1,981.4 1024.4,1001.6 999.7,1021.9 975.0,1042.1 950.4,1062.3 925.9,1082.6 901.3,1102.8 876.9,1123.1 852.5,1143.3 828.2,1163.6 804.0,1183.8 779.9,1204.1 755.9,1224.3 732.0,1244.5 708.2,1264.7 684.6,1284.9 661.0,1305.1 637.7,1325.3 614.4,1345.5 591.4,1365.7 568.5,1386.0 545.7,1406.2  A 609.370,609.370 0.00 0,1 438.8,1237.5 L 438.8,1237.5 462.4,1227.1 486.2,1215.7 510.3,1203.3 534.6,1190.1 559.1,1176.1 583.9,1161.4 608.8,1145.9 633.9,1129.7 659.1,1112.9 684.5,1095.6 710.0,1077.7 735.6,1059.3 761.3,1040.5 787.1,1021.3 812.8,1001.7 838.6,981.7 864.3,961.5 890.0,941.0 915.6,920.2 941.1,899.2 966.4,878.1 991.6,856.8 1016.5,835.3 1041.1,813.8 1065.5,792.2 1089.5,770.5 1113.1,748.7 1136.3,726.9 1159.0,705.1 1181.1,683.3 1202.8,661.5 1223.8,639.7 1244.1,617.9 1263.7,596.2 1282.5,574.5 1300.5,552.9 1317.6,531.3 1333.8,509.8 1348.9,488.3  Z" style="stroke-width: 1.0;  stroke: rgb(0,0,0); fill: rgb(142,84,228); opacity: 0.833;" />
<path d="M 1519.109,1337.854 A 619.370,619.370 0.00 0,1 1309.1,1536.7 L 1309.1,1536.7 1301.9,1525.4 1293.5,1514.5 1284.1,1504.0 1273.7,1494.1 1262.3,1484.6 1250.1,1475.8 1237.1,1467.5 1223.3,1459.9 1208.9,1452.9 1193.8,1446.5 1178.3,1440.9 1162.2,1436.0 1145.7,1431.8 1128.9,1428.3 1111.8,1425.6 1094.5,1423.7 1077.1,1422.5 1059.5,1422.1 1041.9,1422.4 1024.4,1423.5 1006.9,1425.4 989.6,1428.0 972.6,1431.4 955.8,1435.5 939.4,1440.3 923.3,1445.8 907.8,1452.0 892.7,1458.8 878.3,1466.3 864.5,1474.3 851.5,1483.0 839.2,1492.1 827.7,1501.8 817.1,1512.0 807.5,1522.5 798.9,1533.5 791.3,1544.8 784.9,1556.3 779.7,1568.1  A 609.370,609.370 0.00 0,1 545.7,1406.2 L 545.7,1406.2 560.5,1394.0 576.8,1382.4 594.5,1371.3 613.6,1360.9 633.9,1351.1 655.4,1341.8 677.9,1333.0 701.6,1324.8 726.1,1317.1 751.6,1310.0 777.8,1303.3 804.8,1297.2 832.4,1291.5 860.5,1286.4 889.2,1281.7 918.2,1277.6 947.6,1273.9 977.2,1270.8 1007.0,1268.2 1036.9,1266.0 1066.8,1264.4 1096.6,1263.3 1126.3,1262.8 1155.8,1262.8 1185.0,1263.3 1213.8,1264.4 1242.1,1266.1 1270.0,1268.3 1297.2,1271.2 1323.7,1274.7 1349.5,1278.9 1374.5,1283.7 1398.5,1289.2 1421.5,1295.4 1443.5,1302.3 1464.3,1310.0 1483.9,1318.5 1502.2,1327.7 1519.1,1337.9  Z" style="stroke-width: 1.0;  stroke: rgb(0,0,0); fill: rgb(221,234,106); opacity: 0.833;" />
</g>
<defs>
<pattern id="hline-sparse" width="10" height="10" patternTransform="rotate(0 0 0)" patternUnits="userSpaceOnUse"><line x1="0" y1="0" x2="10" y2="0" style="stroke:black;stroke-width:2" /></pattern>
<pattern id="checker" width="10" height="10" patternTransform="rotate(45 0 0)" patternUnits="userSpaceOnUse"><line x1="0" y1="0" x2="10" y2="0" style="stroke:black;stroke-width:2" /><line x1="0" y1="0" x2="0" y2="10" style="stroke:black;stroke-width:2" /></pattern>
<pattern id="checker" width="10" height="10" patternTransform="rotate(45 0 0)" patternUnits="userSpaceOnUse"><line x1="0" y1="0" x2="10" y2="0" style="stroke:black;stroke-width:5" /><line x1="0" y1="0" x2="0" y2="10" style="stroke:black;stroke-width:4" /></pattern>
<pattern id="hline" width="10" height="10" patternTransform="rotate(0 0 0)" patternUnits="userSpaceOnUse"><line x1="0" y1="0" x2="10" y2="0" style="stroke:black;stroke-width:5" /></pattern>
<pattern id="vline-sparse" width="10" height="10" patternTransform="rotate(0 0 0)" patternUnits="userSpaceOnUse"><line x1="0" y1="0" x2="0" y2="10" style="stroke:black;stroke-width:2" /></pattern>
<pattern id="vline" width="10" height="10" patternTransform="rotate(0 0 0)" patternUnits="userSpaceOnUse"><line x1="0" y1="0" x2="0" y2="10" style="stroke:black;stroke-width:5" /></pattern>
</defs>
</svg>
